<?xml version="1.0" encoding="utf-8"?>
<!-- Generator: Adobe Illustrator 16.0.0, SVG Export Plug-In . SVG Version: 6.00 Build 0)  -->
<!DOCTYPE svg PUBLIC "-//W3C//DTD SVG 1.1//EN" "http://www.w3.org/Graphics/SVG/1.1/DTD/svg11.dtd">
<svg version="1.1" id="图层_1" xmlns="http://www.w3.org/2000/svg" xmlns:xlink="http://www.w3.org/1999/xlink" x="0px" y="0px"
	 width="769.5px" height="22px" viewBox="0 0 769.5 22" enable-background="new 0 0 769.5 22" xml:space="preserve">
<path fill="#FFFFFF" stroke="#FFFFFF" stroke-miterlimit="10" d="M769,0.508c-0.215-0.001-0.417-0.008-0.636-0.008
	c-23.998,0-23.998,11.118-47.997,11.118c-24,0-24-11.118-48-11.118c-23.997,0-23.997,11.118-47.993,11.118
	c-24,0-24-11.118-47.998-11.118s-23.998,11.118-47.995,11.118c-23.999,0-23.999-11.118-47.997-11.118
	c-23.999,0-23.999,11.118-47.997,11.118c-24,0-24-11.118-48-11.118s-24,11.118-48,11.118c-24,0-24-11.118-48-11.118
	c-24,0-24,11.118-48.001,11.118c-24,0-24-11.118-48-11.118c-24,0-24,11.118-47.999,11.118c-24,0-24-11.118-48.001-11.118
	S72.384,11.618,48.383,11.618c-23.96,0-24.006-11.077-47.883-11.116V21.5H769V0.508z"/>
<g>
</g>
<g>
</g>
<g>
</g>
<g>
</g>
<g>
</g>
<g>
</g>
</svg>
