<?xml version="1.0" encoding="utf-8"?>
<!-- Generator: Adobe Illustrator 16.0.0, SVG Export Plug-In . SVG Version: 6.00 Build 0)  -->
<!DOCTYPE svg PUBLIC "-//W3C//DTD SVG 1.1//EN" "http://www.w3.org/Graphics/SVG/1.1/DTD/svg11.dtd">
<svg version="1.1" id="图层_1" xmlns="http://www.w3.org/2000/svg" xmlns:xlink="http://www.w3.org/1999/xlink" x="0px" y="0px"
	 width="443px" height="171px" viewBox="0 0 443 171" enable-background="new 0 0 443 171" xml:space="preserve">
<path fill="#D8720D" d="M443,158c0,6.627-5.373,12-12,12H12c-6.627,0-12-5.373-12-12V12C0,5.373,5.373,0,12,0h419
	c6.627,0,12,5.373,12,12V158z"/>
<g>
	<rect x="37.75" y="18" fill="none" width="397.25" height="140"/>
	<path fill="#272431" d="M103.882,120.989h-9.652v-35.86H56.016v35.86h-9.653V42.174h9.653v35.145h38.214V42.174h9.652V120.989z"/>
	<path fill="#272431" d="M139.174,138.93c-0.36,0.799-0.81,1.439-1.35,1.92c-0.54,0.479-1.371,0.72-2.49,0.72h-7.92l11.1-24.12
		l-25.08-57.24h9.24c0.919,0,1.64,0.23,2.16,0.69c0.519,0.46,0.9,0.97,1.14,1.53l16.26,38.28c0.36,0.881,0.669,1.761,0.93,2.641
		c0.26,0.88,0.49,1.779,0.69,2.699c0.28-0.92,0.56-1.819,0.84-2.699c0.279-0.88,0.6-1.779,0.96-2.7l15.78-38.22
		c0.24-0.639,0.65-1.17,1.23-1.59c0.58-0.42,1.209-0.63,1.89-0.63h8.52L139.174,138.93z"/>
	<path fill="#272431" d="M182.793,141.569v-81.36h6.36c1.52,0,2.479,0.74,2.88,2.22l0.9,7.2c2.6-3.16,5.57-5.7,8.91-7.62
		c3.339-1.92,7.189-2.88,11.55-2.88c3.48,0,6.64,0.67,9.48,2.01c2.84,1.341,5.26,3.321,7.26,5.94c2,2.621,3.541,5.871,4.621,9.75
		c1.079,3.88,1.619,8.34,1.619,13.38c0,4.48-0.6,8.65-1.8,12.51c-1.2,3.861-2.921,7.201-5.16,10.021
		c-2.241,2.819-4.99,5.04-8.25,6.66c-3.261,1.62-6.93,2.43-11.01,2.43c-3.76,0-6.97-0.62-9.63-1.86c-2.661-1.238-5.01-3-7.05-5.279
		v26.88H182.793z M209.853,67.769c-3.48,0-6.53,0.801-9.15,2.4c-2.62,1.6-5.031,3.86-7.23,6.78v29.4c1.959,2.64,4.11,4.5,6.45,5.58
		c2.34,1.08,4.95,1.619,7.83,1.619c5.64,0,9.979-2.02,13.02-6.06c3.039-4.04,4.56-9.8,4.56-17.28c0-3.96-0.351-7.359-1.05-10.2
		c-0.7-2.84-1.71-5.169-3.03-6.99c-1.32-1.819-2.94-3.15-4.86-3.99S212.292,67.769,209.853,67.769z"/>
	<path fill="#272431" d="M273.092,59.249c3.639,0,6.999,0.61,10.08,1.83c3.079,1.221,5.739,2.98,7.979,5.28
		c2.24,2.3,3.99,5.14,5.25,8.52c1.26,3.38,1.89,7.23,1.89,11.55c0,1.68-0.18,2.8-0.539,3.359c-0.36,0.561-1.041,0.84-2.04,0.84
		h-40.44c0.08,3.84,0.6,7.181,1.561,10.021c0.959,2.841,2.279,5.21,3.959,7.11c1.681,1.9,3.68,3.32,6,4.26s4.92,1.41,7.801,1.41
		c2.679,0,4.989-0.31,6.93-0.931c1.939-0.62,3.609-1.29,5.01-2.01s2.57-1.39,3.51-2.01s1.75-0.931,2.431-0.931
		c0.879,0,1.56,0.341,2.04,1.021l3,3.899c-1.32,1.601-2.9,2.991-4.74,4.17c-1.84,1.181-3.81,2.151-5.91,2.91
		c-2.1,0.761-4.271,1.33-6.51,1.711c-2.24,0.379-4.461,0.569-6.66,0.569c-4.199,0-8.07-0.71-11.609-2.13
		c-3.541-1.42-6.601-3.5-9.181-6.24c-2.58-2.739-4.59-6.129-6.03-10.17c-1.439-4.039-2.16-8.68-2.16-13.92
		c0-4.239,0.65-8.199,1.951-11.88c1.299-3.68,3.169-6.87,5.609-9.57c2.439-2.7,5.42-4.82,8.939-6.36
		C264.73,60.02,268.691,59.249,273.092,59.249z M273.331,67.109c-5.159,0-9.22,1.491-12.18,4.47c-2.96,2.98-4.8,7.11-5.521,12.39
		h33.061c0-2.479-0.34-4.75-1.02-6.81c-0.681-2.06-1.681-3.84-3-5.34c-1.32-1.5-2.931-2.66-4.83-3.48
		C277.941,67.52,275.771,67.109,273.331,67.109z"/>
	<path fill="#272431" d="M311.91,120.989v-60.78h6.12c1.16,0,1.96,0.22,2.4,0.66c0.439,0.441,0.739,1.2,0.899,2.28l0.721,9.48
		c2.079-4.24,4.649-7.55,7.71-9.93c3.06-2.379,6.649-3.57,10.77-3.57c1.68,0,3.2,0.19,4.561,0.57c1.359,0.381,2.619,0.91,3.779,1.59
		l-1.38,7.98c-0.28,1-0.899,1.5-1.859,1.5c-0.562,0-1.421-0.189-2.58-0.57c-1.161-0.38-2.781-0.57-4.86-0.57
		c-3.72,0-6.831,1.08-9.33,3.24c-2.5,2.16-4.59,5.301-6.27,9.42v38.7H311.91z"/>
	<path fill="#272431" d="M398.791,130.889v7.201h-47.28v-7.201H398.791z"/>
</g>
<g>
</g>
<g>
</g>
<g>
</g>
<g>
</g>
<g>
</g>
<g>
</g>
</svg>
