<?xml version="1.0" encoding="utf-8"?>
<!-- Generator: Adobe Illustrator 16.0.0, SVG Export Plug-In . SVG Version: 6.00 Build 0)  -->
<!DOCTYPE svg PUBLIC "-//W3C//DTD SVG 1.1//EN" "http://www.w3.org/Graphics/SVG/1.1/DTD/svg11.dtd">
<svg version="1.1" xmlns="http://www.w3.org/2000/svg" xmlns:xlink="http://www.w3.org/1999/xlink" x="0px" y="0px"
	 width="1200.027px" height="563.667px" viewBox="0 0 1200.027 563.667" enable-background="new 0 0 1200.027 563.667"
	 xml:space="preserve">
<g id="Layer_1">
</g>
<g id="_x33_.2._Footer_Background">
</g>
<g id="_x33_.1._Footer_Content">
</g>
<g id="_x31_.2._Section_Background">
	<rect id="_x31_.3._Background" x="-1" y="0.238" fill="#666666" width="1201.027" height="563.429"/>
	<linearGradient id="_x31_.3._Background_2_" gradientUnits="userSpaceOnUse" x1="0" y1="281.9521" x2="1200.0273" y2="281.9521">
		<stop  offset="0" style="stop-color:#CADB41"/>
		<stop  offset="0.2678" style="stop-color:#98D35F"/>
		<stop  offset="0.8763" style="stop-color:#1BBEAA"/>
		<stop  offset="1" style="stop-color:#01BABA"/>
	</linearGradient>
	
		<rect id="_x31_.3._Background_1_" y="0.238" opacity="0.9" fill="url(#_x31_.3._Background_2_)" width="1200.027" height="563.429"/>
	<g>
		<defs>
			<rect id="SVGID_1_" width="1200.027" height="563.667"/>
		</defs>
		<clipPath id="SVGID_2_">
			<use xlink:href="#SVGID_1_"  overflow="visible"/>
		</clipPath>
		<g id="_x31_.2._Topography" clip-path="url(#SVGID_2_)">
			<defs>
				<rect id="SVGID_3_" x="-3.667" y="-56.666" width="1203.694" height="743.667"/>
			</defs>
			<clipPath id="SVGID_4_">
				<use xlink:href="#SVGID_3_"  overflow="visible"/>
			</clipPath>
			<g opacity="0.15" clip-path="url(#SVGID_4_)">
				<polygon fill="#19BD9F" points="170.499,559.274 484.817,559.274 327.658,442.319 				"/>
				<polygon fill="#81DEBC" points="170.499,559.274 278.742,345.142 327.658,442.319 				"/>
				<polygon fill="#33D3B4" points="327.658,247.68 278.742,345.142 327.658,442.319 				"/>
				<polygon fill="#33D3B4" points="376.77,344.858 484.817,559.274 327.658,442.319 				"/>
				<polygon fill="#98EDCB" points="327.658,247.68 376.77,344.858 327.658,442.319 				"/>
				<polygon fill="#33D3B4" points="170.499,559.274 484.817,559.274 327.658,676.229 				"/>
				<polygon fill="#19BD9F" points="376.77,344.858 484.817,559.274 484.817,364.351 				"/>
				<polygon fill="#33D3B4" points="641.975,247.68 484.817,559.274 484.817,364.351 				"/>
				<polygon fill="#81DEBC" points="327.658,247.68 376.77,344.858 484.817,364.351 				"/>
				<polygon fill="#98EDCB" points="327.658,247.68 641.975,247.68 484.817,364.351 				"/>
				<polygon fill="#19BD9F" points="327.658,247.68 278.742,345.142 278.742,150.218 				"/>
				<polygon fill="#81DEBC" points="327.658,247.68 435.9,33.264 278.742,150.218 				"/>
				<polygon fill="#98EDCB" points="327.658,247.68 413.59,77.458 484.817,130.442 				"/>
				<polygon fill="#33D3B4" points="327.658,247.68 425.629,247.68 484.817,130.442 				"/>
				<polygon fill="#19BD9F" points="641.975,247.68 425.629,247.68 484.817,130.442 				"/>
				<polygon fill="#33D3B4" points="435.9,33.264 413.59,77.458 484.817,130.442 				"/>
				<polygon fill="#33D3B4" points="170.5,130.442 278.742,345.142 278.742,150.218 				"/>
				<polygon fill="#19BD9F" points="170.5,130.442 435.9,33.264 278.742,150.218 				"/>
				<polygon fill="#81DEBC" points="170.5,130.442 327.658,72.897 327.658,-181.437 				"/>
				<polygon fill="#98EDCB" points="327.658,72.897 435.9,33.264 327.658,-181.437 				"/>
				<polygon fill="#33D3B4" points="484.817,-64.199 435.9,33.264 327.658,-181.437 				"/>
				<polygon fill="#19BD9F" points="484.817,-64.199 435.9,33.264 484.817,130.442 				"/>
				<polygon fill="#19BD9F" points="121.583,33.264 278.742,345.142 50.399,174.524 				"/>
				<polygon fill="#98EDCB" points="121.583,33.264 219.814,32.578 170.5,130.442 				"/>
				<polygon fill="#33D3B4" points="-35.576,344.858 121.583,227.713 50.399,174.524 				"/>
				<polygon fill="#81DEBC" points="-35.576,344.858 121.583,227.713 278.742,345.142 				"/>
				<polygon fill="#98EDCB" points="-35.576,344.858 121.583,461.813 278.742,345.142 				"/>
				<polygon fill="#33D3B4" points="170.499,559.274 121.583,461.813 278.742,345.142 				"/>
				<polygon fill="#19BD9F" points="170.499,559.274 121.583,461.813 121.583,656.736 				"/>
				<polygon fill="#33D3B4" points="170.499,559.274 278.742,772.891 121.583,656.736 				"/>
				<polygon fill="#19BD9F" points="170.499,559.274 278.742,772.891 399.149,730.493 				"/>
				<polygon fill="#98EDCB" points="-2.921,708.888 121.583,461.813 121.583,656.736 				"/>
				<polygon fill="#81DEBC" points="-2.921,708.888 121.583,461.813 -35.576,578.767 				"/>
				<polygon fill="#33D3B4" points="-192.735,461.813 121.583,461.813 -35.576,578.767 				"/>
				<polygon fill="#19BD9F" points="-35.576,344.858 121.583,461.813 23.359,461.813 				"/>
				<polygon fill="#81DEBC" points="-35.576,344.858 -192.735,461.813 23.359,461.813 				"/>
				<polygon fill="#19BD9F" points="-35.576,344.858 -35.576,150.218 50.399,174.524 				"/>
				<polygon fill="#33D3B4" points="121.583,33.264 -35.576,150.218 50.399,174.524 				"/>
				<polygon fill="#81DEBC" points="121.583,33.264 -35.576,150.218 -192.735,33.264 				"/>
				<polygon fill="#33D3B4" points="121.583,33.264 61.339,-84.377 -95.82,33.264 				"/>
				<polygon fill="#19BD9F" points="121.583,33.264 61.339,-84.377 219.814,32.578 				"/>
				<polygon fill="#81DEBC" points="-10.353,-137.03 61.339,-279.301 219.814,32.578 				"/>
				<polygon fill="#19BD9F" points="-10.353,-137.03 61.339,-84.377 -95.82,33.264 				"/>
				<polygon fill="#98EDCB" points="170.698,-63.797 268.93,-64.482 219.615,33.381 				"/>
				<polygon fill="#19BD9F" points="-24.225,715.214 278.742,772.891 121.583,656.736 				"/>
				<polygon fill="#81DEBC" points="399.149,730.493 484.817,559.274 327.658,676.229 				"/>
				<polygon fill="#98EDCB" points="399.149,730.493 534.486,460.798 584.768,714.813 				"/>
				<polygon fill="#33D3B4" points="663.037,715.214 534.486,460.798 584.768,714.813 				"/>
				<polygon fill="#19BD9F" points="663.037,715.214 534.486,460.798 763.461,631.28 				"/>
				<polygon fill="#81DEBC" points="641.975,247.68 534.486,460.798 763.461,631.28 				"/>
				<polygon fill="#19BD9F" points="641.975,247.68 692.102,149.935 709.47,460.798 				"/>
				<polygon fill="#33D3B4" points="849.261,461.013 692.102,149.935 709.47,460.798 				"/>
				<polygon fill="#98EDCB" points="849.261,461.013 709.47,460.798 763.461,631.28 				"/>
				<polygon fill="#33D3B4" points="663.037,715.214 715.548,726.362 763.461,631.28 				"/>
				<polygon fill="#81DEBC" points="1014.572,708.888 715.548,726.362 763.461,631.28 				"/>
				<polygon fill="#33D3B4" points="966.238,693.95 849.261,461.013 763.461,631.28 				"/>
				<polygon fill="#19BD9F" points="1006.418,773.69 849.261,461.013 1006.42,578.767 				"/>
				<polygon fill="#33D3B4" points="1006.418,773.69 1163.578,461.812 1006.42,578.767 				"/>
				<polygon fill="#81DEBC" points="1163.578,461.812 849.261,461.013 1006.42,578.767 				"/>
				<polygon fill="#98EDCB" points="1163.578,461.812 849.261,461.013 1005.316,293.559 				"/>
				<polygon fill="#19BD9F" points="849.261,461.013 692.102,149.935 921.12,319.089 				"/>
				<polygon fill="#33D3B4" points="849.261,461.013 1005.316,293.559 1005.316,150.218 				"/>
				<polygon fill="#81DEBC" points="849.261,266.013 921.12,319.089 1005.316,150.218 				"/>
				<polygon fill="#98EDCB" points="849.261,266.013 692.102,149.935 1005.316,150.218 				"/>
				<polygon fill="#81DEBC" points="848.157,33.264 692.102,149.935 1005.316,150.218 				"/>
				<polygon fill="#33D3B4" points="848.157,33.264 897.632,-64.482 1005.316,150.218 				"/>
				<polygon fill="#19BD9F" points="1054.79,52.472 897.632,-64.482 1054.79,247.396 				"/>
				<polygon fill="#81DEBC" points="1163.578,461.812 1005.316,293.559 1005.316,150.218 				"/>
				<polygon fill="#19BD9F" points="848.157,33.264 897.632,-64.482 690.998,-278.615 				"/>
				<polygon fill="#33D3B4" points="848.157,33.264 692.102,149.935 798.754,-64.199 				"/>
				<polygon fill="#81DEBC" points="641.975,52.472 641.975,247.68 798.754,-64.199 				"/>
				<polygon fill="#98EDCB" points="641.975,52.472 641.975,247.68 484.817,-64.199 				"/>
				<polygon fill="#33D3B4" points="484.817,130.442 641.975,247.68 484.817,-64.199 				"/>
				<polygon fill="#33D3B4" points="641.975,52.472 798.754,-64.199 484.817,-64.199 				"/>
				<polygon fill="#33D3B4" points="1054.79,52.472 897.632,-64.482 1211.948,-64.482 				"/>
				<polygon fill="#98EDCB" points="1054.79,52.472 1054.79,247.396 1211.948,-64.482 				"/>
				<polygon fill="#81DEBC" points="1369.107,247.396 1054.79,247.396 1211.948,-64.482 				"/>
				<polygon fill="#33D3B4" points="1211.949,364.351 1054.79,247.396 1369.107,247.396 				"/>
				<polygon fill="#19BD9F" points="1283.689,416.903 1211.949,559.274 1054.79,247.396 				"/>
				<polygon fill="#81DEBC" points="1320.736,773.69 1006.42,773.69 1163.578,461.812 				"/>
			</g>
		</g>
	</g>
</g>
<g id="_x31_._Section:_Header_Logo_V3">
</g>
<g id="_x32_._Section:_Subscribe">
</g>
<g id="Section_Title_GRAD_V">
</g>
<g id="First_Name_GRAD_V">
</g>
<g id="Second_Name_GRAD_V">
</g>
<g id="Email_Field_GRAD_V">
</g>
<g id="Submit_Botton_GRAD_V">
	<g>
	</g>
	<g>
	</g>
	<g>
	</g>
	<g>
	</g>
	<g>
	</g>
	<g>
	</g>
</g>
</svg>
