<?xml version="1.0" encoding="utf-8"?>
<!-- Generator: Adobe Illustrator 16.0.0, SVG Export Plug-In . SVG Version: 6.00 Build 0)  -->
<!DOCTYPE svg PUBLIC "-//W3C//DTD SVG 1.1//EN" "http://www.w3.org/Graphics/SVG/1.1/DTD/svg11.dtd">
<svg version="1.1" id="图层_1" xmlns="http://www.w3.org/2000/svg" xmlns:xlink="http://www.w3.org/1999/xlink" x="0px" y="0px"
	 width="1404.684px" height="827.161px" viewBox="0 0 1404.684 827.161" enable-background="new 0 0 1404.684 827.161"
	 xml:space="preserve">
<linearGradient id="_x31_.3._Background_2_" gradientUnits="userSpaceOnUse" x1="-158.2007" y1="301.4644" x2="1404.6836" y2="301.4644">
	<stop  offset="0" style="stop-color:#CBDC41"/>
	<stop  offset="0.3541" style="stop-color:#A0CF75"/>
	<stop  offset="1" style="stop-color:#05BAB9"/>
</linearGradient>
<rect id="_x31_.3._Background_1_" x="-158.201" y="-225.031" opacity="0.9" fill="url(#_x31_.3._Background_2_)" width="1562.884" height="1052.991"/>
<g opacity="0.15">
	<polygon fill="#2AB99D" points="206.075,613.543 520.393,613.543 363.233,496.588 	"/>
	<polygon fill="#8BCFB6" points="206.075,613.543 314.318,399.411 363.233,496.588 	"/>
	<polygon fill="#54C1AC" points="363.233,301.949 314.318,399.411 363.233,496.588 	"/>
	<polygon fill="#54C1AC" points="412.346,399.127 520.393,613.543 363.233,496.588 	"/>
	<polygon fill="#A2D7C2" points="363.233,301.949 412.346,399.127 363.233,496.588 	"/>
	<polygon fill="#54C1AC" points="206.075,613.543 520.393,613.543 363.234,730.499 	"/>
	<polygon fill="#2AB99D" points="412.346,399.127 520.393,613.543 520.393,418.62 	"/>
	<polygon fill="#54C1AC" points="677.551,301.949 520.393,613.543 520.393,418.62 	"/>
	<polygon fill="#8BCFB6" points="363.233,301.949 412.346,399.127 520.393,418.62 	"/>
	<polygon fill="#A2D7C2" points="363.233,301.949 677.551,301.949 520.393,418.62 	"/>
	<polygon fill="#2AB99D" points="363.233,301.949 314.318,399.411 314.318,204.487 	"/>
	<polygon fill="#8BCFB6" points="363.233,301.949 471.476,87.533 314.318,204.487 	"/>
	<polygon fill="#A2D7C2" points="363.233,301.949 449.166,131.728 520.393,184.712 	"/>
	<polygon fill="#54C1AC" points="363.233,301.949 461.205,301.949 520.393,184.712 	"/>
	<polygon fill="#2AB99D" points="677.551,301.949 461.205,301.949 520.393,184.712 	"/>
	<polygon fill="#54C1AC" points="471.476,87.533 449.166,131.728 520.393,184.712 	"/>
	<polygon fill="#54C1AC" points="206.075,184.712 314.318,399.411 314.318,204.487 	"/>
	<polygon fill="#2AB99D" points="206.075,184.712 471.476,87.533 314.318,204.487 	"/>
	<polygon fill="#8BCFB6" points="206.075,184.712 363.233,127.167 363.234,-127.167 	"/>
	<polygon fill="#A2D7C2" points="363.233,127.167 471.476,87.533 363.234,-127.167 	"/>
	<polygon fill="#54C1AC" points="520.393,-9.93 471.476,87.533 363.234,-127.167 	"/>
	<polygon fill="#2AB99D" points="520.393,-9.93 471.476,87.533 520.393,184.712 	"/>
	<polygon fill="#2AB99D" points="157.158,87.533 314.318,399.411 85.975,228.794 	"/>
	<polygon fill="#A2D7C2" points="157.158,87.533 255.39,86.847 206.075,184.712 	"/>
	<polygon fill="#54C1AC" points="0,399.127 157.159,281.982 85.975,228.794 	"/>
	<polygon fill="#8BCFB6" points="0,399.127 157.159,281.982 314.318,399.411 	"/>
	<polygon fill="#A2D7C2" points="0,399.127 157.158,516.083 314.318,399.411 	"/>
	<polygon fill="#54C1AC" points="206.075,613.543 157.158,516.083 314.318,399.411 	"/>
	<polygon fill="#2AB99D" points="206.075,613.543 157.158,516.083 157.159,711.006 	"/>
	<polygon fill="#54C1AC" points="206.075,613.543 314.318,827.161 157.159,711.006 	"/>
	<polygon fill="#2AB99D" points="206.075,613.543 314.318,827.161 434.725,784.762 	"/>
	<polygon fill="#A2D7C2" points="32.654,763.157 157.158,516.083 157.159,711.006 	"/>
	<polygon fill="#8BCFB6" points="32.654,763.157 157.158,516.083 0,633.036 	"/>
	<polygon fill="#54C1AC" points="-157.159,516.083 157.158,516.083 0,633.036 	"/>
	<polygon fill="#2AB99D" points="0,399.127 157.158,516.083 58.935,516.083 	"/>
	<polygon fill="#8BCFB6" points="0,399.127 -157.159,516.083 58.935,516.083 	"/>
	<polygon fill="#2AB99D" points="0,399.127 0,204.487 85.975,228.794 	"/>
	<polygon fill="#54C1AC" points="157.158,87.533 0,204.487 85.975,228.794 	"/>
	<polygon fill="#8BCFB6" points="157.158,87.533 0,204.487 -157.159,87.533 	"/>
	<polygon fill="#54C1AC" points="157.158,87.533 96.915,-30.107 -60.244,87.533 	"/>
	<polygon fill="#2AB99D" points="157.158,87.533 96.915,-30.107 255.39,86.847 	"/>
	<polygon fill="#8BCFB6" points="25.223,-82.76 96.915,-225.031 255.39,86.847 	"/>
	<polygon fill="#2AB99D" points="25.223,-82.76 96.915,-30.107 -60.244,87.533 	"/>
	<polygon fill="#A2D7C2" points="206.274,-9.528 304.506,-10.212 255.191,87.651 	"/>
	<polygon fill="#2AB99D" points="11.351,769.483 314.318,827.161 157.159,711.006 	"/>
	<polygon fill="#8BCFB6" points="434.725,784.762 520.393,613.543 363.234,730.499 	"/>
	<polygon fill="#A2D7C2" points="434.725,784.762 570.062,515.067 620.344,769.083 	"/>
	<polygon fill="#54C1AC" points="698.613,769.483 570.062,515.067 620.344,769.083 	"/>
	<polygon fill="#2AB99D" points="698.613,769.483 570.062,515.067 799.037,685.549 	"/>
	<polygon fill="#8BCFB6" points="677.551,301.949 570.062,515.067 799.037,685.549 	"/>
	<polygon fill="#2AB99D" points="677.551,301.949 727.678,204.204 745.045,515.067 	"/>
	<polygon fill="#54C1AC" points="884.836,515.282 727.678,204.204 745.045,515.067 	"/>
	<polygon fill="#A2D7C2" points="884.836,515.282 745.045,515.067 799.037,685.549 	"/>
	<polygon fill="#54C1AC" points="698.613,769.483 751.123,780.631 799.037,685.549 	"/>
	<polygon fill="#8BCFB6" points="1050.148,763.157 751.123,780.631 799.037,685.549 	"/>
	<polygon fill="#54C1AC" points="1001.814,748.219 884.836,515.282 799.037,685.549 	"/>
	<polygon fill="#2AB99D" points="1041.994,827.959 884.836,515.282 1041.996,633.036 	"/>
	<polygon fill="#54C1AC" points="1041.994,827.959 1199.154,516.081 1041.996,633.036 	"/>
	<polygon fill="#8BCFB6" points="1199.154,516.081 884.836,515.282 1041.996,633.036 	"/>
	<polygon fill="#A2D7C2" points="1199.154,516.081 884.836,515.282 1040.893,347.829 	"/>
	<polygon fill="#2AB99D" points="884.836,515.282 727.678,204.204 956.695,373.358 	"/>
	<polygon fill="#54C1AC" points="884.836,515.282 1040.893,347.829 1040.893,204.487 	"/>
	<polygon fill="#8BCFB6" points="884.836,320.282 956.695,373.358 1040.893,204.487 	"/>
	<polygon fill="#A2D7C2" points="884.836,320.282 727.678,204.204 1040.893,204.487 	"/>
	<polygon fill="#8BCFB6" points="883.732,87.533 727.678,204.204 1040.893,204.487 	"/>
	<polygon fill="#54C1AC" points="883.732,87.533 933.207,-10.212 1040.893,204.487 	"/>
	<polygon fill="#2AB99D" points="1090.365,106.741 933.207,-10.212 1090.365,301.665 	"/>
	<polygon fill="#8BCFB6" points="1199.154,516.081 1040.893,347.829 1040.893,204.487 	"/>
	<polygon fill="#2AB99D" points="883.732,87.533 933.207,-10.212 726.574,-224.346 	"/>
	<polygon fill="#54C1AC" points="883.732,87.533 727.678,204.204 834.33,-9.93 	"/>
	<polygon fill="#8BCFB6" points="677.551,106.741 677.551,301.949 834.33,-9.93 	"/>
	<polygon fill="#A2D7C2" points="677.551,106.741 677.551,301.949 520.393,-9.93 	"/>
	<polygon fill="#54C1AC" points="520.393,184.712 677.551,301.949 520.393,-9.93 	"/>
	<polygon fill="#54C1AC" points="677.551,106.741 834.33,-9.93 520.393,-9.93 	"/>
	<polygon fill="#54C1AC" points="1090.365,106.741 933.207,-10.212 1247.523,-10.212 	"/>
	<polygon fill="#A2D7C2" points="1090.365,106.741 1090.365,301.665 1247.523,-10.212 	"/>
	<polygon fill="#8BCFB6" points="1404.684,301.666 1090.365,301.665 1247.523,-10.212 	"/>
	<polygon fill="#54C1AC" points="1247.525,418.62 1090.365,301.665 1404.684,301.666 	"/>
	<polygon fill="#2AB99D" points="1319.266,471.172 1247.525,613.543 1090.365,301.665 	"/>
	<polygon fill="#8BCFB6" points="1356.313,827.959 1041.996,827.959 1199.154,516.081 	"/>
</g>
<g>
</g>
<g>
</g>
<g>
</g>
<g>
</g>
<g>
</g>
<g>
</g>
</svg>
