<?xml version="1.0" encoding="utf-8"?>
<!-- Generator: Adobe Illustrator 16.0.0, SVG Export Plug-In . SVG Version: 6.00 Build 0)  -->
<!DOCTYPE svg PUBLIC "-//W3C//DTD SVG 1.1//EN" "http://www.w3.org/Graphics/SVG/1.1/DTD/svg11.dtd">
<svg version="1.1" id="图层_1" xmlns="http://www.w3.org/2000/svg" xmlns:xlink="http://www.w3.org/1999/xlink" x="0px" y="0px"
	 width="536.032px" height="170.959px" viewBox="0 0 536.032 170.959" enable-background="new 0 0 536.032 170.959"
	 xml:space="preserve">
<g>
	<g>
		<g>
			<g>
				<g>
					<path fill="#F4F4F4" d="M70.472,133.676c-0.253,0-0.507-0.066-0.734-0.195L0.743,93.967C0.285,93.704,0.001,93.217,0,92.688
						c-0.001-0.527,0.281-1.018,0.738-1.281L21.171,79.61c0.705-0.406,1.609-0.166,2.017,0.541c0.408,0.706,0.167,1.609-0.541,2.017
						L4.439,92.68l66.03,37.814l45.7-26.34L69.664,77.53c-0.708-0.404-0.953-1.308-0.548-2.016c0.406-0.707,1.308-0.953,2.015-0.548
						l48.737,27.901c0.459,0.264,0.743,0.752,0.744,1.279c0,0.529-0.281,1.018-0.74,1.283l-48.663,28.049
						C70.981,133.61,70.727,133.676,70.472,133.676z"/>
				</g>
				<g>
					<g>
						
							<rect x="22.057" y="79.781" transform="matrix(0.5004 0.8658 -0.8658 0.5004 80.9784 20.7047)" fill="#F4F4F4" width="0.984" height="1.477"/>
					</g>
					<g>
						<path fill="#F4F4F4" d="M25.032,79.654l-0.492-0.853l2.397-1.384l0.493,0.853L25.032,79.654z M29.027,77.348l-0.492-0.853
							l2.398-1.384l0.492,0.853L29.027,77.348z M33.023,75.041l-0.492-0.853l2.397-1.385l0.492,0.853L33.023,75.041z M37.019,72.734
							l-0.493-0.853l2.397-1.385l0.492,0.853L37.019,72.734z M41.015,70.427l-0.492-0.852l2.397-1.385l0.492,0.853L41.015,70.427z
							 M45.011,68.12l-0.493-0.854l2.397-1.383l0.493,0.852L45.011,68.12z"/>
					</g>
					<g>
						<path fill="#F4F4F4" d="M49.007,65.813l-0.492-0.854l1.278-0.738c0.151-0.088,0.339-0.088,0.49-0.001l1.284,0.73l-0.486,0.856
							l-1.039-0.593L49.007,65.813z"/>
					</g>
					<g>
						<path fill="#F4F4F4" d="M67.252,75.024l-2.426-1.383l0.488-0.855l2.426,1.383L67.252,75.024z M63.209,72.72l-2.426-1.383
							l0.488-0.855l2.426,1.383L63.209,72.72z M59.166,70.416l-2.426-1.383l0.489-0.856l2.426,1.383L59.166,70.416z M55.122,68.11
							l-2.426-1.382l0.488-0.856l2.426,1.383L55.122,68.11z"/>
					</g>
					<g>
						
							<rect x="69.017" y="75.391" transform="matrix(0.8692 0.4944 -0.4944 0.8692 46.6417 -24.565)" fill="#F4F4F4" width="1.477" height="0.985"/>
					</g>
				</g>
			</g>
			<g>
				<g>
					<path fill="#F4F4F4" d="M21.909,105.819c-0.255,0-0.51-0.064-0.737-0.197c-0.458-0.264-0.74-0.752-0.74-1.279V44.024
						c0-0.523,0.278-1.008,0.73-1.273L93.766,0.202c0.458-0.268,1.023-0.27,1.482-0.007c0.458,0.263,0.742,0.752,0.742,1.281v27.767
						c0,0.815-0.662,1.477-1.477,1.477s-1.477-0.661-1.477-1.477V4.054l-69.65,40.817v56.909l46.271-26.809
						c0.705-0.407,1.608-0.168,2.018,0.538c0.409,0.705,0.168,1.609-0.538,2.018L22.649,105.62
						C22.421,105.752,22.165,105.819,21.909,105.819z"/>
				</g>
				<g>
					<g>
						<rect x="94.021" y="29.243" fill="#F4F4F4" width="0.985" height="1.477"/>
					</g>
					<g>
						<path fill="#F4F4F4" d="M95.006,58.921h-0.985v-2.82h0.985V58.921z M95.006,54.22h-0.985V51.4h0.985V54.22z M95.006,49.521
							h-0.985V46.7h0.985V49.521z M95.006,44.82h-0.985V42h0.985V44.82z M95.006,40.12h-0.985V37.3h0.985V40.12z M95.006,35.42
							h-0.985v-2.819h0.985V35.42z"/>
					</g>
					<g>
						<path fill="#F4F4F4" d="M93.485,63.448l-0.496-0.852l1.032-0.602V60.8h0.985v1.478c0,0.175-0.094,0.337-0.245,0.426
							L93.485,63.448z"/>
					</g>
					<g>
						<path fill="#F4F4F4" d="M73.676,75.005l-0.496-0.85l2.377-1.387l0.496,0.85L73.676,75.005z M77.638,72.694l-0.496-0.851
							l2.377-1.388l0.496,0.85L77.638,72.694z M81.6,70.382l-0.496-0.85l2.377-1.388l0.496,0.851L81.6,70.382z M85.562,68.071
							l-0.496-0.851l2.377-1.388l0.496,0.85L85.562,68.071z M89.523,65.759l-0.496-0.85l2.377-1.387l0.496,0.85L89.523,65.759z"/>
					</g>
					<g>
						
							<rect x="70.713" y="75.138" transform="matrix(0.5038 0.8638 -0.8638 0.5038 100.8748 -23.8592)" fill="#F4F4F4" width="0.985" height="1.477"/>
					</g>
				</g>
			</g>
			<g>
				<g>
					<path fill="#F4F4F4" d="M119.622,135.684c-0.254,0-0.508-0.064-0.735-0.195l-27.049-14.68
						c-0.708-0.404-0.951-1.309-0.545-2.016c0.407-0.707,1.311-0.951,2.017-0.545l24.856,13.418l-0.027-87.36L71.867,18.126v58.123
						c0,0.816-0.662,1.477-1.477,1.477s-1.477-0.66-1.477-1.477V15.594c0-0.524,0.278-1.011,0.732-1.276
						c0.454-0.264,1.016-0.267,1.471-0.01l49.231,27.857c0.467,0.264,0.754,0.76,0.75,1.297v90.757
						c-0.004,0.525-0.286,1.008-0.742,1.27C120.129,135.62,119.875,135.684,119.622,135.684z"/>
				</g>
				<g>
					<g>
						
							<rect x="91.194" y="118.668" transform="matrix(0.8675 0.4974 -0.4974 0.8675 71.4531 -29.9414)" fill="#F4F4F4" width="1.476" height="0.986"/>
					</g>
					<g>
						<path fill="#F4F4F4" d="M89.263,118.196l-2.676-1.535l0.49-0.855l2.676,1.537L89.263,118.196z M84.804,115.635l-2.676-1.537
							l0.491-0.854l2.676,1.537L84.804,115.635z M80.344,113.073l-2.675-1.537l0.49-0.854l2.675,1.537L80.344,113.073z
							 M75.884,110.512l-2.675-1.537l0.49-0.854l2.675,1.537L75.884,110.512z"/>
					</g>
					<g>
						<path fill="#F4F4F4" d="M71.425,107.952l-1.281-0.736c-0.153-0.088-0.247-0.25-0.247-0.428v-1.477h0.984v1.193l1.034,0.592
							L71.425,107.952z"/>
					</g>
					<g>
						<path fill="#F4F4F4" d="M70.882,103.268h-0.984v-3.064h0.984V103.268z M70.882,98.159h-0.984v-3.064h0.984V98.159z
							 M70.882,93.051h-0.984v-3.064h0.984V93.051z M70.882,87.942h-0.984v-3.064h0.984V87.942z M70.882,82.835h-0.984v-3.066h0.984
							V82.835z"/>
					</g>
					<g>
						<rect x="69.897" y="76.249" fill="#F4F4F4" width="0.984" height="1.477"/>
					</g>
				</g>
			</g>
			<g>
				<path fill="#F4F4F4" d="M189.604,116.979c-1.293,0-2.401-0.459-3.326-1.387c-0.924-0.922-1.386-2.029-1.386-3.326V93.299
					h-24.394v18.967c0,1.297-0.45,2.404-1.346,3.326c-0.924,0.928-2.033,1.387-3.327,1.387c-1.293,0-2.401-0.459-3.326-1.387
					c-0.923-0.922-1.386-2.029-1.386-3.326v-47.32c0-1.294,0.462-2.402,1.386-3.327c0.925-0.924,2.033-1.385,3.326-1.385
					c1.294,0,2.403,0.461,3.327,1.385c0.896,0.925,1.346,2.033,1.346,3.327v18.967h24.394V64.946c0-1.294,0.462-2.402,1.386-3.327
					c0.925-0.924,2.033-1.385,3.326-1.385c1.294,0,2.403,0.461,3.326,1.385c0.925,0.925,1.386,2.033,1.386,3.327v47.32
					c0,1.297-0.461,2.404-1.386,3.326C192.006,116.52,190.897,116.979,189.604,116.979z"/>
				<path fill="#F4F4F4" d="M246.747,61.382c1.004,0.792,1.584,1.822,1.743,3.088c0.132,1.294-0.212,2.442-1.03,3.445L230.313,89.38
					v22.929c0,1.293-0.461,2.4-1.386,3.326c-0.897,0.896-1.993,1.344-3.285,1.344c-1.294,0-2.391-0.447-3.288-1.344
					c-0.924-0.926-1.386-2.033-1.386-3.326V89.38l-17.146-21.465c-0.819-1.003-1.149-2.151-0.991-3.445
					c0.133-1.266,0.7-2.296,1.703-3.088c1.003-0.817,2.151-1.162,3.446-1.029c1.266,0.158,2.31,0.74,3.129,1.742l14.533,18.217
					l14.572-18.217c0.792-1.002,1.822-1.584,3.088-1.742C244.596,60.22,245.744,60.564,246.747,61.382z"/>
				<path fill="#F4F4F4" d="M278.15,60.075c4.91,0,9.095,1.623,12.554,4.871c3.485,3.247,5.227,7.154,5.227,11.721
					c0,4.488-1.677,8.344-5.03,11.564c-3.327,3.195-7.365,4.871-12.117,5.029h-0.04h-0.04h-0.08
					c-0.291,0.025-0.45,0.039-0.475,0.039l-0.237-0.039h-11.603v19.049c0,1.293-0.45,2.387-1.347,3.283
					c-0.925,0.928-2.034,1.387-3.327,1.387c-1.293,0-2.389-0.459-3.286-1.387c-0.925-0.896-1.387-1.99-1.387-3.283v-47.56
					c0-1.294,0.461-2.391,1.387-3.287c0.897-0.924,1.993-1.387,3.286-1.387H278.15z M278.427,83.913
					c2.244-0.051,4.158-0.777,5.742-2.177c1.585-1.425,2.376-3.115,2.376-5.069c0-1.979-0.819-3.681-2.455-5.107
					c-1.637-1.428-3.618-2.139-5.94-2.139h-11.84v14.492H278.427z"/>
				<path fill="#F4F4F4" d="M338.977,107.596c1.293,0,2.389,0.461,3.287,1.387c0.924,0.924,1.385,2.031,1.385,3.326
					c0,1.293-0.461,2.387-1.385,3.283c-0.898,0.928-1.994,1.387-3.287,1.387h-28.671c-1.293,0-2.39-0.459-3.287-1.387
					c-0.924-0.896-1.386-1.99-1.386-3.283V64.827c0-1.32,0.462-2.429,1.386-3.326c0.897-0.924,1.994-1.387,3.287-1.387h0.039
					l28.632,0.08c1.293,0,2.4,0.463,3.326,1.387c0.896,0.923,1.346,2.031,1.346,3.325s-0.461,2.39-1.385,3.287
					c-0.898,0.925-1.994,1.386-3.287,1.386h-0.039l-23.92-0.08v14.375h17.266c1.293,0,2.402,0.451,3.326,1.348
					c0.924,0.924,1.387,2.033,1.387,3.327c0,1.293-0.463,2.401-1.387,3.327c-0.924,0.896-2.033,1.344-3.326,1.344h-17.266v14.377
					H338.977z"/>
				<path fill="#F4F4F4" d="M391.01,76.628c0,3.484-1.082,6.64-3.246,9.464c-2.086,2.8-4.832,4.792-8.236,5.979l8.988,18.217
					c0.555,1.137,0.619,2.311,0.197,3.523c-0.396,1.215-1.174,2.115-2.336,2.693c-0.66,0.318-1.346,0.475-2.059,0.475
					c-1.928,0-3.314-0.869-4.158-2.613l-10.494-21.264h-8.039v18.889c0,1.266-0.463,2.363-1.387,3.287
					c-0.896,0.896-1.994,1.346-3.287,1.346c-1.266,0-2.363-0.449-3.285-1.346c-0.898-0.924-1.346-2.021-1.346-3.287V64.788
					c0-1.294,0.447-2.39,1.346-3.287c0.922-0.924,2.02-1.387,3.285-1.387h16.396c4.883,0,9.041,1.611,12.475,4.832
					C389.282,68.166,391.01,72.062,391.01,76.628z M373.667,83.796c2.217-0.079,4.119-0.806,5.701-2.179
					c1.557-1.399,2.338-3.063,2.338-4.989c0-2.006-0.818-3.709-2.457-5.107c-1.637-1.4-3.604-2.1-5.898-2.1h-11.723v14.375H373.667z
					"/>
				<path fill="#F4F4F4" d="M420.87,111.672c1.268,0,2.361,0.451,3.287,1.35c0.896,0.896,1.346,1.979,1.346,3.246
					c0,1.293-0.449,2.389-1.346,3.287c-0.926,0.896-2.02,1.346-3.287,1.346h-19.604c-1.293,0-2.389-0.449-3.285-1.346
					c-0.898-0.898-1.348-1.994-1.348-3.287c0-1.268,0.449-2.35,1.348-3.246c0.896-0.898,1.992-1.35,3.285-1.35H420.87z"/>
			</g>
		</g>
	</g>
	<g>
		<rect x="150" y="145.653" fill="none" width="386.032" height="22.002"/>
		<path fill="#94318D" d="M163.959,159.407c-0.073,1.631-0.725,3.012-1.955,4.143c-1.24,1.13-2.716,1.695-4.43,1.695
			c-1.486,0-2.816-0.319-3.992-0.957c-1.413-0.766-2.311-1.878-2.693-3.336c-0.109-0.429-0.055-0.834,0.164-1.217
			c0.228-0.383,0.556-0.629,0.984-0.738c0.428-0.109,0.834-0.055,1.217,0.164c0.383,0.228,0.629,0.556,0.738,0.984
			c0.164,0.61,0.61,1.089,1.34,1.436c0.656,0.301,1.403,0.451,2.242,0.451c0.856,0,1.59-0.27,2.201-0.807
			c0.62-0.529,0.948-1.186,0.984-1.969c0.018-0.475-0.15-0.898-0.506-1.271c-0.565-0.602-1.513-0.912-2.844-0.93h-0.014
			c-0.037,0-0.046,0-0.027,0c-0.009,0-0.019,0-0.027,0c-2.233-0.037-3.942-0.68-5.127-1.928c-0.976-1.039-1.431-2.247-1.367-3.623
			c0.073-1.641,0.725-3.026,1.955-4.156c1.23-1.131,2.707-1.695,4.43-1.695c1.485,0,2.816,0.318,3.992,0.957
			c1.413,0.766,2.311,1.877,2.693,3.336c0.109,0.428,0.05,0.834-0.178,1.217c-0.219,0.383-0.542,0.629-0.971,0.738
			c-0.429,0.109-0.834,0.055-1.217-0.164c-0.383-0.229-0.629-0.557-0.738-0.984c-0.164-0.611-0.615-1.09-1.354-1.436
			c-0.647-0.301-1.39-0.451-2.229-0.451c-0.857,0-1.595,0.269-2.215,0.807c-0.611,0.537-0.935,1.193-0.971,1.969
			c-0.019,0.474,0.15,0.902,0.506,1.285c0.565,0.592,1.513,0.897,2.844,0.916h0.068c2.233,0.036,3.942,0.684,5.127,1.941
			C163.567,156.813,164.022,158.021,163.959,159.407z"/>
		<path fill="#94318D" d="M180.078,162.004c0.446,0,0.825,0.159,1.135,0.479c0.319,0.318,0.479,0.701,0.479,1.148
			c0,0.446-0.16,0.824-0.479,1.135c-0.31,0.318-0.688,0.479-1.135,0.479h-9.898c-0.447,0-0.825-0.16-1.135-0.479
			c-0.319-0.311-0.479-0.688-0.479-1.135v-16.393c0-0.456,0.159-0.839,0.479-1.148c0.31-0.319,0.688-0.479,1.135-0.479h0.014
			l9.885,0.027c0.446,0,0.829,0.159,1.148,0.479c0.31,0.318,0.465,0.701,0.465,1.148c0,0.446-0.16,0.824-0.479,1.135
			c-0.31,0.318-0.688,0.479-1.135,0.479h-0.014l-8.258-0.027v4.963h5.961c0.446,0,0.829,0.154,1.148,0.465
			c0.319,0.318,0.479,0.701,0.479,1.148c0,0.446-0.16,0.829-0.479,1.148c-0.319,0.31-0.702,0.465-1.148,0.465h-5.961v4.963H180.078z
			"/>
		<path fill="#94318D" d="M194.447,165.245c-2.689,0-4.99-0.953-6.904-2.857c-1.905-1.914-2.857-4.216-2.857-6.904
			c0-2.698,0.952-5,2.857-6.904c1.914-1.914,4.215-2.871,6.904-2.871c2.215,0,4.202,0.674,5.961,2.023
			c0.346,0.273,0.551,0.629,0.615,1.066c0.055,0.446-0.055,0.848-0.328,1.203s-0.629,0.561-1.066,0.615
			c-0.447,0.055-0.848-0.051-1.203-0.314c-1.167-0.902-2.493-1.354-3.979-1.354c-1.796,0-3.332,0.638-4.607,1.914
			c-1.276,1.275-1.914,2.816-1.914,4.621c0,1.795,0.638,3.331,1.914,4.607c1.276,1.275,2.812,1.914,4.607,1.914
			c1.695,0,3.163-0.565,4.402-1.695c0.328-0.301,0.715-0.442,1.162-0.424c0.446,0.018,0.82,0.195,1.121,0.533
			c0.301,0.328,0.442,0.715,0.424,1.162c-0.019,0.446-0.191,0.82-0.52,1.121C199.168,164.397,196.972,165.245,194.447,165.245z"/>
		<path fill="#94318D" d="M218.209,145.639c0.438,0,0.811,0.154,1.121,0.465c0.31,0.31,0.465,0.684,0.465,1.121v11.02
			c0,1.932-0.684,3.582-2.051,4.949s-3.013,2.051-4.936,2.051c-1.933,0-3.582-0.684-4.949-2.051s-2.051-3.018-2.051-4.949v-11.02
			c0-0.438,0.155-0.812,0.465-1.121c0.31-0.311,0.684-0.465,1.121-0.465s0.811,0.154,1.121,0.465c0.31,0.31,0.465,0.684,0.465,1.121
			v11.02c0,1.057,0.374,1.959,1.121,2.707c0.747,0.747,1.649,1.121,2.707,1.121c1.048,0,1.946-0.374,2.693-1.121
			c0.747-0.748,1.121-1.65,1.121-2.707v-11.02c0-0.438,0.155-0.812,0.465-1.121C217.397,145.793,217.771,145.639,218.209,145.639z"
			/>
		<path fill="#94318D" d="M238.607,151.313c0,1.203-0.374,2.292-1.121,3.268c-0.72,0.966-1.668,1.654-2.844,2.064l3.104,6.289
			c0.191,0.392,0.214,0.797,0.068,1.217c-0.137,0.419-0.406,0.729-0.807,0.93c-0.228,0.109-0.465,0.164-0.711,0.164
			c-0.666,0-1.144-0.301-1.436-0.902L231.238,157h-2.775v6.521c0,0.438-0.16,0.815-0.479,1.135c-0.31,0.31-0.688,0.465-1.135,0.465
			c-0.438,0-0.816-0.155-1.135-0.465c-0.31-0.319-0.465-0.697-0.465-1.135v-16.297c0-0.447,0.155-0.825,0.465-1.135
			c0.319-0.319,0.697-0.479,1.135-0.479h5.66c1.686,0,3.122,0.556,4.307,1.668C238.01,148.391,238.607,149.736,238.607,151.313z
			 M232.619,153.788c0.766-0.027,1.422-0.278,1.969-0.752c0.538-0.483,0.807-1.058,0.807-1.723c0-0.693-0.283-1.281-0.848-1.764
			c-0.565-0.483-1.244-0.725-2.037-0.725h-4.047v4.963H232.619z"/>
		<path fill="#94318D" d="M254.795,162.004c0.446,0,0.825,0.159,1.135,0.479c0.319,0.318,0.479,0.701,0.479,1.148
			c0,0.446-0.16,0.824-0.479,1.135c-0.31,0.318-0.688,0.479-1.135,0.479h-9.898c-0.447,0-0.825-0.16-1.135-0.479
			c-0.319-0.311-0.479-0.688-0.479-1.135v-16.393c0-0.456,0.159-0.839,0.479-1.148c0.31-0.319,0.688-0.479,1.135-0.479h0.014
			l9.885,0.027c0.446,0,0.829,0.159,1.148,0.479c0.31,0.318,0.465,0.701,0.465,1.148c0,0.446-0.16,0.824-0.479,1.135
			c-0.31,0.318-0.688,0.479-1.135,0.479h-0.014l-8.258-0.027v4.963h5.961c0.446,0,0.829,0.154,1.148,0.465
			c0.319,0.318,0.479,0.701,0.479,1.148c0,0.446-0.16,0.829-0.479,1.148c-0.319,0.31-0.702,0.465-1.148,0.465h-5.961v4.963H254.795z
			"/>
		<path fill="#94318D" d="M275.357,165.245c-2.689,0-4.99-0.953-6.904-2.857c-1.905-1.914-2.857-4.216-2.857-6.904
			c0-2.698,0.952-5,2.857-6.904c1.914-1.914,4.215-2.871,6.904-2.871c2.215,0,4.202,0.674,5.961,2.023
			c0.346,0.273,0.551,0.629,0.615,1.066c0.055,0.446-0.055,0.848-0.328,1.203s-0.629,0.561-1.066,0.615
			c-0.447,0.055-0.848-0.051-1.203-0.314c-1.167-0.902-2.493-1.354-3.979-1.354c-1.796,0-3.332,0.638-4.607,1.914
			c-1.276,1.275-1.914,2.816-1.914,4.621c0,1.795,0.638,3.331,1.914,4.607c1.276,1.275,2.812,1.914,4.607,1.914
			c1.695,0,3.163-0.565,4.402-1.695c0.328-0.301,0.715-0.442,1.162-0.424c0.446,0.018,0.82,0.195,1.121,0.533
			c0.301,0.328,0.442,0.715,0.424,1.162c-0.019,0.446-0.191,0.82-0.52,1.121C280.079,164.397,277.882,165.245,275.357,165.245z"/>
		<path fill="#94318D" d="M295.113,165.245c-2.707,0-5.018-0.962-6.932-2.885c-1.923-1.914-2.885-4.225-2.885-6.932
			s0.961-5.022,2.885-6.945c1.914-1.914,4.225-2.871,6.932-2.871s5.022,0.957,6.945,2.871c1.914,1.923,2.871,4.238,2.871,6.945
			s-0.957,5.018-2.871,6.932C300.135,164.283,297.82,165.245,295.113,165.245z M295.113,148.838c-1.814,0-3.363,0.643-4.648,1.928
			c-1.294,1.294-1.941,2.848-1.941,4.662c0,1.813,0.647,3.363,1.941,4.648c1.285,1.294,2.834,1.941,4.648,1.941
			c1.813,0,3.368-0.647,4.662-1.941c1.285-1.285,1.928-2.835,1.928-4.648c0-1.814-0.643-3.368-1.928-4.662
			C298.481,149.481,296.927,148.838,295.113,148.838z"/>
		<path fill="#94318D" d="M322.84,164.629h-0.014v-0.014l-9.83-12.646v11.662c0,0.446-0.16,0.824-0.479,1.135
			c-0.31,0.318-0.688,0.479-1.135,0.479c-0.447,0-0.825-0.16-1.135-0.479c-0.319-0.311-0.479-0.688-0.479-1.135v-16.379
			c0-0.347,0.1-0.656,0.301-0.93c0.2-0.283,0.465-0.479,0.793-0.588c0.319-0.119,0.647-0.128,0.984-0.027
			c0.328,0.1,0.597,0.287,0.807,0.561l9.83,12.66v-11.676c0-0.447,0.155-0.825,0.465-1.135c0.319-0.319,0.702-0.479,1.148-0.479
			c0.446,0,0.825,0.159,1.135,0.479c0.319,0.31,0.479,0.688,0.479,1.135v16.406c0,0.018-0.005,0.045-0.014,0.082
			c0,0.036,0,0.059,0,0.068c0,0.018-0.005,0.045-0.014,0.082c0,0.036-0.005,0.063-0.014,0.082l-0.014,0.068
			c-0.009,0.045-0.019,0.072-0.027,0.082c0,0.009-0.009,0.031-0.027,0.068c-0.009,0.036-0.019,0.063-0.027,0.082l-0.027,0.068
			l-0.041,0.068c-0.009,0.018-0.023,0.045-0.041,0.082l-0.041,0.041c-0.009,0.018-0.027,0.045-0.055,0.082l-0.041,0.055
			c-0.009,0.009-0.027,0.027-0.055,0.055c-0.027,0.036-0.046,0.055-0.055,0.055c0,0.009-0.019,0.027-0.055,0.055
			c-0.027,0.027-0.05,0.045-0.068,0.055c0.027-0.019,0.022-0.014-0.014,0.014l-0.014,0.014c-0.073,0.055-0.142,0.1-0.205,0.137
			h-0.014c-0.073,0.036-0.146,0.068-0.219,0.096c-0.037,0.018-0.046,0.022-0.027,0.014c-0.073,0.027-0.15,0.045-0.232,0.055
			l-0.041,0.014c-0.082,0.009-0.16,0.014-0.232,0.014c-0.055,0-0.114-0.005-0.178-0.014c0.018,0.009,0.009,0.009-0.027,0
			c-0.055-0.01-0.101-0.019-0.137-0.027c0.009,0.009-0.009,0.004-0.055-0.014c-0.046-0.01-0.082-0.019-0.109-0.027
			c-0.009,0-0.027-0.01-0.055-0.027c-0.046-0.01-0.082-0.023-0.109-0.041c-0.019,0-0.037-0.01-0.055-0.027
			c-0.037-0.019-0.068-0.032-0.096-0.041c-0.027-0.019-0.046-0.032-0.055-0.041c-0.027-0.019-0.06-0.041-0.096-0.068
			c-0.027-0.019-0.046-0.032-0.055-0.041c-0.046-0.037-0.087-0.073-0.123-0.109l-0.014-0.014v-0.014
			c-0.037-0.037-0.055-0.055-0.055-0.055S322.867,164.666,322.84,164.629z"/>
		<path fill="#94318D" d="M335.418,148.838h-4.061c-0.447,0-0.83-0.16-1.149-0.479c-0.31-0.311-0.465-0.688-0.465-1.135
			c0-0.447,0.155-0.825,0.465-1.135c0.319-0.319,0.702-0.479,1.149-0.479h11.361c0.438,0,0.814,0.159,1.135,0.479
			c0.309,0.31,0.465,0.688,0.465,1.135c0,0.446-0.156,0.824-0.465,1.135c-0.32,0.318-0.697,0.479-1.135,0.479h-4.074v14.793
			c0,0.446-0.16,0.829-0.479,1.148c-0.311,0.31-0.689,0.465-1.135,0.465c-0.447,0-0.826-0.155-1.135-0.465
			c-0.32-0.319-0.479-0.702-0.479-1.148V148.838z"/>
		<path fill="#94318D" d="M347.573,165.122c-0.41-0.174-0.703-0.465-0.875-0.875c-0.164-0.41-0.164-0.82,0-1.23l1.736-4.17v-0.014
			l5.031-12.141c0.018-0.046,0.041-0.092,0.068-0.137l0.027-0.068c0.027-0.037,0.045-0.06,0.055-0.068
			c0-0.01,0.014-0.032,0.041-0.068c0.027-0.027,0.045-0.046,0.055-0.055c0-0.01,0.014-0.027,0.041-0.055
			c0.035-0.037,0.055-0.06,0.055-0.068c0.008-0.01,0.027-0.023,0.055-0.041c0.035-0.037,0.059-0.055,0.068-0.055
			c-0.01,0,0.008-0.014,0.055-0.041c0.035-0.027,0.059-0.046,0.068-0.055l0.055-0.041c0.045-0.027,0.072-0.041,0.082-0.041
			c0.018-0.01,0.049-0.023,0.096-0.041c0.045-0.027,0.059-0.037,0.041-0.027c-0.02,0.009,0,0,0.055-0.027
			c0.045-0.01,0.076-0.019,0.096-0.027c0.008,0,0.041-0.01,0.096-0.027l0.055-0.014c0.018,0,0.049-0.005,0.096-0.014l0.068-0.014
			c0.008,0,0.035,0,0.082,0c0.035,0,0.059,0,0.068,0c0.018,0,0.045,0,0.082,0h0.082l0.082,0.014l0.068,0.014
			c0.018,0,0.049,0.009,0.096,0.027c0.055,0.009,0.072,0.014,0.055,0.014c0.109,0.027,0.209,0.068,0.301,0.123
			c-0.01-0.01,0.008,0,0.055,0.027c0.045,0.027,0.072,0.045,0.082,0.055l0.055,0.041c0.035,0.027,0.059,0.045,0.068,0.055
			c0.008,0,0.027,0.014,0.055,0.041s0.049,0.045,0.068,0.055c0,0.009,0.014,0.027,0.041,0.055c0.035,0.036,0.055,0.059,0.055,0.068
			l0.041,0.055c0.035,0.036,0.055,0.059,0.055,0.068c0,0.009,0.014,0.031,0.041,0.068c0.027,0.036,0.041,0.059,0.041,0.068
			c0.027,0.045,0.049,0.091,0.068,0.137l5.031,12.141v0.014l1.736,4.17c0.164,0.41,0.164,0.82,0,1.23
			c-0.174,0.41-0.465,0.701-0.875,0.875c-0.201,0.082-0.406,0.123-0.615,0.123c-0.721,0-1.217-0.333-1.49-0.998l-1.313-3.172h-7.916
			l-1.313,3.172c-0.273,0.665-0.771,0.998-1.49,0.998c-0.211,0-0.314,0-0.314,0S347.772,165.204,347.573,165.122z M357.581,157.862
			l-2.639-6.344l-2.625,6.344H357.581z"/>
		<path fill="#94318D" d="M368.764,165.245c-0.447,0-0.826-0.16-1.135-0.479c-0.32-0.311-0.479-0.688-0.479-1.135v-16.311
			c0-0.447,0.158-0.825,0.479-1.135c0.309-0.319,0.688-0.479,1.135-0.479c0.445,0,0.824,0.159,1.135,0.479
			c0.318,0.31,0.479,0.688,0.479,1.135v16.311c0,0.446-0.16,0.824-0.479,1.135C369.588,165.084,369.209,165.245,368.764,165.245z"/>
		<path fill="#94318D" d="M389.354,164.629h-0.014v-0.014l-9.83-12.646v11.662c0,0.446-0.16,0.824-0.479,1.135
			c-0.311,0.318-0.689,0.479-1.135,0.479c-0.447,0-0.826-0.16-1.135-0.479c-0.32-0.311-0.479-0.688-0.479-1.135v-16.379
			c0-0.347,0.1-0.656,0.301-0.93c0.199-0.283,0.465-0.479,0.793-0.588c0.318-0.119,0.646-0.128,0.984-0.027
			c0.328,0.1,0.596,0.287,0.807,0.561l9.83,12.66v-11.676c0-0.447,0.154-0.825,0.465-1.135c0.318-0.319,0.701-0.479,1.148-0.479
			c0.445,0,0.824,0.159,1.135,0.479c0.318,0.31,0.479,0.688,0.479,1.135v16.406c0,0.018-0.006,0.045-0.014,0.082
			c0,0.036,0,0.059,0,0.068c0,0.018-0.006,0.045-0.014,0.082c0,0.036-0.006,0.063-0.014,0.082l-0.014,0.068
			c-0.01,0.045-0.02,0.072-0.027,0.082c0,0.009-0.01,0.031-0.027,0.068c-0.01,0.036-0.02,0.063-0.027,0.082l-0.027,0.068
			l-0.041,0.068c-0.01,0.018-0.023,0.045-0.041,0.082l-0.041,0.041c-0.01,0.018-0.027,0.045-0.055,0.082l-0.041,0.055
			c-0.01,0.009-0.027,0.027-0.055,0.055c-0.027,0.036-0.047,0.055-0.055,0.055c0,0.009-0.02,0.027-0.055,0.055
			c-0.027,0.027-0.051,0.045-0.068,0.055c0.027-0.019,0.021-0.014-0.014,0.014l-0.014,0.014c-0.074,0.055-0.143,0.1-0.205,0.137
			h-0.014c-0.074,0.036-0.146,0.068-0.219,0.096c-0.037,0.018-0.047,0.022-0.027,0.014c-0.074,0.027-0.15,0.045-0.232,0.055
			l-0.041,0.014c-0.082,0.009-0.16,0.014-0.232,0.014c-0.055,0-0.115-0.005-0.178-0.014c0.018,0.009,0.008,0.009-0.027,0
			c-0.055-0.01-0.102-0.019-0.137-0.027c0.008,0.009-0.01,0.004-0.055-0.014c-0.047-0.01-0.082-0.019-0.109-0.027
			c-0.01,0-0.027-0.01-0.055-0.027c-0.047-0.01-0.082-0.023-0.109-0.041c-0.02,0-0.037-0.01-0.055-0.027
			c-0.037-0.019-0.068-0.032-0.096-0.041c-0.027-0.019-0.047-0.032-0.055-0.041c-0.027-0.019-0.061-0.041-0.096-0.068
			c-0.027-0.019-0.047-0.032-0.055-0.041c-0.047-0.037-0.088-0.073-0.123-0.109l-0.014-0.014v-0.014
			c-0.037-0.037-0.055-0.055-0.055-0.055S389.381,164.666,389.354,164.629z"/>
		<path fill="#94318D" d="M409.657,162.004c0.445,0,0.824,0.159,1.135,0.479c0.318,0.318,0.479,0.701,0.479,1.148
			c0,0.446-0.16,0.824-0.479,1.135c-0.311,0.318-0.689,0.479-1.135,0.479h-9.898c-0.447,0-0.826-0.16-1.135-0.479
			c-0.32-0.311-0.479-0.688-0.479-1.135v-16.393c0-0.456,0.158-0.839,0.479-1.148c0.309-0.319,0.688-0.479,1.135-0.479h0.014
			l9.885,0.027c0.445,0,0.828,0.159,1.148,0.479c0.309,0.318,0.465,0.701,0.465,1.148c0,0.446-0.16,0.824-0.479,1.135
			c-0.311,0.318-0.689,0.479-1.135,0.479h-0.014l-8.258-0.027v4.963h5.961c0.445,0,0.828,0.154,1.148,0.465
			c0.318,0.318,0.479,0.701,0.479,1.148c0,0.446-0.16,0.829-0.479,1.148c-0.32,0.31-0.703,0.465-1.148,0.465h-5.961v4.963H409.657z"
			/>
		<path fill="#94318D" d="M428.852,151.313c0,1.203-0.375,2.292-1.121,3.268c-0.721,0.966-1.668,1.654-2.844,2.064l3.104,6.289
			c0.191,0.392,0.213,0.797,0.068,1.217c-0.137,0.419-0.406,0.729-0.807,0.93c-0.229,0.109-0.465,0.164-0.711,0.164
			c-0.666,0-1.145-0.301-1.436-0.902L421.483,157h-2.775v6.521c0,0.438-0.16,0.815-0.479,1.135c-0.311,0.31-0.689,0.465-1.135,0.465
			c-0.438,0-0.816-0.155-1.135-0.465c-0.311-0.319-0.465-0.697-0.465-1.135v-16.297c0-0.447,0.154-0.825,0.465-1.135
			c0.318-0.319,0.697-0.479,1.135-0.479h5.66c1.686,0,3.121,0.556,4.307,1.668C428.254,148.391,428.852,149.736,428.852,151.313z
			 M422.864,153.788c0.766-0.027,1.422-0.278,1.969-0.752c0.537-0.483,0.807-1.058,0.807-1.723c0-0.693-0.283-1.281-0.848-1.764
			c-0.566-0.483-1.244-0.725-2.037-0.725h-4.047v4.963H422.864z"/>
		<path fill="#94318D" d="M448.225,165.245c-2.689,0-4.99-0.953-6.904-2.857c-1.906-1.914-2.857-4.216-2.857-6.904
			c0-2.698,0.951-5,2.857-6.904c1.914-1.914,4.215-2.871,6.904-2.871c2.215,0,4.201,0.674,5.961,2.023
			c0.346,0.273,0.551,0.629,0.615,1.066c0.055,0.446-0.055,0.848-0.328,1.203s-0.629,0.561-1.066,0.615
			c-0.447,0.055-0.848-0.051-1.203-0.314c-1.168-0.902-2.494-1.354-3.979-1.354c-1.797,0-3.332,0.638-4.607,1.914
			c-1.277,1.275-1.914,2.816-1.914,4.621c0,1.795,0.637,3.331,1.914,4.607c1.275,1.275,2.811,1.914,4.607,1.914
			c1.695,0,3.162-0.565,4.402-1.695c0.328-0.301,0.715-0.442,1.162-0.424c0.445,0.018,0.82,0.195,1.121,0.533
			c0.301,0.328,0.441,0.715,0.424,1.162c-0.02,0.446-0.191,0.82-0.52,1.121C452.946,164.397,450.749,165.245,448.225,165.245z"/>
		<path fill="#94318D" d="M461.063,145.639c0.445,0,0.824,0.159,1.135,0.479c0.318,0.31,0.479,0.688,0.479,1.135v14.766h7.232
			c0.445,0,0.828,0.159,1.148,0.479c0.309,0.31,0.465,0.688,0.465,1.135c0,0.446-0.156,0.824-0.465,1.135
			c-0.32,0.318-0.703,0.479-1.148,0.479h-8.846c-0.447,0-0.826-0.16-1.135-0.479c-0.32-0.311-0.479-0.688-0.479-1.135v-16.379
			c0-0.447,0.158-0.825,0.479-1.135C460.237,145.798,460.616,145.639,461.063,145.639z"/>
		<path fill="#94318D" d="M483.649,165.245c-2.707,0-5.018-0.962-6.932-2.885c-1.924-1.914-2.885-4.225-2.885-6.932
			s0.961-5.022,2.885-6.945c1.914-1.914,4.225-2.871,6.932-2.871s5.021,0.957,6.945,2.871c1.914,1.923,2.871,4.238,2.871,6.945
			s-0.957,5.018-2.871,6.932C488.67,164.283,486.356,165.245,483.649,165.245z M483.649,148.838c-1.814,0-3.363,0.643-4.648,1.928
			c-1.295,1.294-1.941,2.848-1.941,4.662c0,1.813,0.646,3.363,1.941,4.648c1.285,1.294,2.834,1.941,4.648,1.941
			c1.813,0,3.367-0.647,4.662-1.941c1.285-1.285,1.928-2.835,1.928-4.648c0-1.814-0.643-3.368-1.928-4.662
			C487.016,149.481,485.461,148.838,483.649,148.838z"/>
		<path fill="#94318D" d="M510.364,145.639c0.438,0,0.811,0.154,1.121,0.465c0.309,0.31,0.465,0.684,0.465,1.121v11.02
			c0,1.932-0.684,3.582-2.051,4.949s-3.014,2.051-4.936,2.051c-1.934,0-3.582-0.684-4.949-2.051s-2.051-3.018-2.051-4.949v-11.02
			c0-0.438,0.154-0.812,0.465-1.121c0.309-0.311,0.684-0.465,1.121-0.465s0.811,0.154,1.121,0.465
			c0.309,0.31,0.465,0.684,0.465,1.121v11.02c0,1.057,0.373,1.959,1.121,2.707c0.746,0.747,1.648,1.121,2.707,1.121
			c1.047,0,1.945-0.374,2.693-1.121c0.746-0.748,1.121-1.65,1.121-2.707v-11.02c0-0.438,0.154-0.812,0.465-1.121
			C509.551,145.793,509.926,145.639,510.364,145.639z"/>
		<path fill="#94318D" d="M519.032,165.245c-0.438,0-0.816-0.155-1.135-0.465c-0.32-0.319-0.479-0.702-0.479-1.148v-16.365
			c0-0.447,0.158-0.83,0.479-1.148c0.309-0.311,0.688-0.465,1.135-0.465h4.143c2.697,0,5.004,0.952,6.918,2.857
			c1.904,1.914,2.857,4.215,2.857,6.904c0,2.697-0.953,4.999-2.857,6.904c-1.914,1.914-4.221,2.871-6.918,2.871l-4.115,0.055
			H519.032z M520.659,161.991l2.502-0.041c1.813,0,3.357-0.639,4.635-1.914c1.275-1.276,1.914-2.816,1.914-4.621
			c0-1.796-0.639-3.332-1.914-4.607c-1.277-1.285-2.816-1.928-4.621-1.928h-2.516V161.991z"/>
	</g>
</g>
<g>
</g>
<g>
</g>
<g>
</g>
<g>
</g>
<g>
</g>
<g>
</g>
</svg>
