<?xml version="1.0" standalone="no"?>
<!DOCTYPE svg PUBLIC "-//W3C//DTD SVG 1.1//EN" "http://www.w3.org/Graphics/SVG/1.1/DTD/svg11.dtd" >
<svg xmlns="http://www.w3.org/2000/svg" xmlns:xlink="http://www.w3.org/1999/xlink" version="1.1">
<metadata>
Created by FontForge 20150715 at Thu Jan  7 08:30:17 2016
 By Jimmy Wärting
-
</metadata>
<defs>
<font id="ONEDAY" horiz-adv-x="833" >
  <font-face 
    font-family="ONE DAY"
    font-weight="400"
    font-stretch="normal"
    units-per-em="1000"
    panose-1="0 0 0 0 0 0 0 0 0 0"
    ascent="750"
    descent="-250"
    x-height="745"
    cap-height="750"
    bbox="-36 -99 784.95 849"
    underline-thickness="50"
    underline-position="-100"
    stemh="58"
    stemv="57"
    unicode-range="U+000D-2122"
  />
<missing-glyph horiz-adv-x="344" 
 />
    <glyph glyph-name=".notdef" horiz-adv-x="344" 
 />
    <glyph glyph-name="NULL" horiz-adv-x="0" 
 />
    <glyph glyph-name="NULL" horiz-adv-x="0" 
 />
    <glyph glyph-name="CR" unicode="&#xd;" horiz-adv-x="344" 
 />
    <glyph glyph-name="space" unicode=" " horiz-adv-x="198" 
 />
    <glyph glyph-name="dollar" unicode="$" horiz-adv-x="532" 
d="M217 56c18 0 30 -13 30 -29c0 -3 0 -5 -2 -8v-90c0 -15 -11 -28 -28 -28c-16 0 -27 13 -27 28v71c-94 8 -139 56 -163 95c-27 49 -27 96 -27 98v0v2c0 15 13 27 27 27c17 0 31 -12 31 -27v0c0 -2 0 -38 18 -72c30 -44 74 -67 141 -67zM58 193v0v2v-2zM342 376
c28 -15 50 -39 67 -66c27 -47 27 -100 27 -117c0 -14 0 -49 -16 -87c-8 -20 -21 -39 -39 -56c-18 -18 -44 -31 -73 -40c-1 -2 -5 -2 -6 -2c-13 0 -25 9 -30 21c-3 16 5 33 21 38c58 17 87 58 87 126c0 103 -56 154 -163 154c-47 0 -89 8 -122 28c-29 14 -51 36 -68 63
c-11 21 -20 43 -24 70c-3 19 -3 36 -3 43c0 12 0 44 14 81c7 21 19 40 33 57c18 18 39 34 65 45c14 6 32 0 37 -14c5 -16 0 -34 -16 -39c-63 -26 -75 -86 -75 -130c0 -67 28 -146 159 -146c49 0 91 -9 125 -29zM210 697c-12 4 -20 14 -20 28v97c0 15 11 27 27 27
c17 0 28 -12 28 -27v-71c92 -6 141 -57 164 -99c26 -50 27 -100 27 -101v0v-2c0 -16 -12 -27 -27 -27c-17 0 -29 11 -29 27v2s-2 39 -23 75c-26 46 -73 70 -140 70h-3h-2zM380 551v0v0v0z" />
    <glyph glyph-name="percent" unicode="%" horiz-adv-x="496" 
d="M121 612c-38 0 -68 31 -68 69s30 69 68 69s69 -31 69 -69s-31 -69 -69 -69zM121 706c-14 0 -25 -11 -25 -25c0 -15 11 -26 25 -26c15 0 26 11 26 26c0 14 -11 25 -26 25zM310 0c-38 0 -69 31 -69 69s31 69 69 69s69 -31 69 -69s-31 -69 -69 -69zM310 95
c-14 0 -26 -12 -26 -26s12 -26 26 -26s26 12 26 26s-12 26 -26 26zM27 0c-5 0 -10 1 -14 3c-14 8 -19 26 -11 40l380 692c7 14 25 19 39 11s18 -25 11 -39l-380 -692c-5 -10 -15 -15 -25 -15z" />
    <glyph glyph-name="ampersand" unicode="&#x26;" horiz-adv-x="510" 
d="M24 466c-16 0 -29 13 -29 30v94c0 5 1 45 23 87c22 39 67 86 161 86s140 -39 162 -72c24 -37 24 -73 24 -77v0v-1c0 -16 -12 -28 -28 -28s-29 12 -29 28v0v-1c0 1 -1 26 -16 47c-22 30 -59 45 -113 45c-51 0 -89 -18 -109 -55c-17 -29 -17 -58 -17 -59v-66h165
c17 0 30 -12 30 -28c0 -17 -13 -30 -30 -30h-194zM415 286c16 0 29 -12 29 -29c0 -16 -13 -29 -29 -29h-50v-65c0 -4 0 -45 -21 -87c-15 -25 -34 -46 -58 -61c-28 -17 -63 -27 -106 -27c-41 0 -77 10 -106 27c-24 15 -42 36 -56 61c-22 42 -23 83 -23 87v243
c0 15 13 28 29 28s29 -13 29 -28v-243c0 -1 0 -31 17 -61c20 -37 58 -55 110 -55c55 0 92 19 113 57c15 30 15 59 15 59v65h-50c-15 0 -29 13 -29 29c0 17 14 29 29 29h157z" />
    <glyph glyph-name="quotesingle" unicode="'" horiz-adv-x="120" 
d="M26 585c0 0 -3 0 -4 1c-13 1 -21 14 -19 28l19 118c4 12 16 21 28 19c14 -2 22 -15 20 -28l-20 -118c-2 -11 -12 -20 -24 -20z" />
    <glyph glyph-name="parenleft" unicode="(" horiz-adv-x="309" 
d="M225 56c12 -3 21 -14 21 -28c0 -15 -13 -28 -29 -28c-3 0 -6 1 -8 1c-8 2 -58 19 -107 71c-30 32 -54 71 -71 115c-20 54 -31 117 -31 187c0 72 11 134 31 189c17 44 41 82 71 115c50 52 100 69 107 71v0v0v0c3 0 6 1 8 1c16 0 29 -13 29 -29c0 -13 -9 -24 -21 -27
c-2 -1 -43 -14 -83 -59c-56 -60 -85 -148 -85 -261c0 -111 29 -199 85 -260c40 -45 83 -58 83 -58v0v0z" />
    <glyph glyph-name="parenright" unicode=")" horiz-adv-x="320" 
d="M21 694c-12 4 -21 15 -21 27c0 16 13 29 29 29c2 0 6 -1 8 -1c8 -3 58 -20 107 -72c30 -32 54 -70 71 -114c21 -55 32 -117 32 -188s-11 -134 -32 -187c-17 -45 -41 -84 -71 -115c-49 -53 -100 -70 -107 -72v0v0v0c-3 -1 -6 -1 -8 -1c-16 0 -29 12 -29 28
c0 13 9 24 21 28c2 0 44 15 84 58c56 61 85 149 85 261s-29 200 -85 260c-41 46 -84 59 -85 59h1v0z" />
    <glyph glyph-name="asterisk" unicode="*" horiz-adv-x="333" 
d="M266 548c10 -8 13 -22 6 -33c-5 -8 -13 -11 -20 -11c-5 0 -9 1 -13 4l-77 51v-97c0 -14 -11 -24 -24 -24c-14 0 -24 10 -24 24v97l-77 -51c-4 -3 -9 -4 -13 -4c-8 0 -16 3 -20 11c-8 11 -5 25 6 33l69 46l-69 46c-11 7 -14 22 -6 33c7 11 22 14 33 7l77 -52v98
c0 13 10 24 24 24c13 0 24 -11 24 -24v-98l77 52c11 7 26 4 33 -7s4 -26 -6 -33l-69 -46z" />
    <glyph glyph-name="plus" unicode="+" horiz-adv-x="391" 
d="M275 326c13 0 24 -11 24 -25s-11 -25 -24 -25h-99v-99c0 -14 -12 -25 -26 -25s-25 11 -25 25v99h-99c-13 0 -25 11 -25 25s12 25 25 25h99v99c0 14 11 25 25 25s26 -11 26 -25v-99h99z" />
    <glyph glyph-name="comma" unicode="," horiz-adv-x="105" 
d="M30 -11c-17 0 -30 13 -30 30v50c0 17 13 30 30 30s30 -13 30 -30v-50c0 -17 -13 -30 -30 -30z" />
    <glyph glyph-name="hyphen" unicode="-" horiz-adv-x="390" 
d="M274 275h-249c-14 0 -25 11 -25 25s11 26 25 26h249c14 0 25 -12 25 -26s-11 -25 -25 -25z" />
    <glyph glyph-name="period" unicode="." horiz-adv-x="126" 
d="M89 30c0 -17 -14 -30 -30 -30c-17 0 -30 13 -30 30s13 30 30 30c16 0 30 -13 30 -30z" />
    <glyph glyph-name="slash" unicode="/" horiz-adv-x="358" 
d="M28 0c-3 0 -6 1 -8 1c-15 4 -24 20 -20 35l192 692c4 15 20 24 35 20c15 -5 24 -20 20 -35l-192 -692c-3 -12 -15 -21 -27 -21z" />
    <glyph glyph-name="zero" unicode="0" horiz-adv-x="550" 
d="M242 -5c-58 0 -105 15 -143 45c-32 24 -56 60 -74 105c-28 78 -28 169 -28 230c0 56 0 151 29 230c18 45 42 81 74 105c38 29 84 45 142 45c56 0 103 -16 141 -46c31 -24 55 -61 72 -105c28 -79 28 -169 28 -229v-3c0 -61 0 -151 -28 -228c-17 -45 -41 -80 -72 -104
c-38 -30 -85 -45 -141 -45zM242 696c-81 0 -134 -35 -162 -111c-25 -70 -25 -158 -25 -210c0 -57 0 -142 25 -210c28 -77 79 -112 162 -112c80 0 132 35 159 111c25 68 25 152 25 208v3c0 56 0 140 -25 209c-27 76 -80 112 -159 112zM141 402h199c15 0 29 -13 29 -28
c0 -16 -14 -29 -29 -29h-199c-16 0 -29 13 -29 29c0 15 13 28 29 28z" />
    <glyph glyph-name="one" unicode="1" horiz-adv-x="405" 
d="M310 0h-252c-14 0 -28 13 -28 29s14 28 28 28h98v664c0 16 12 29 28 29s28 -13 28 -29v-664h98c16 0 29 -12 29 -28s-13 -29 -29 -29zM30 509c-6 0 -13 2 -19 6c-12 11 -13 29 -3 41l76 91c10 13 29 14 41 4c12 -11 14 -29 3 -41l-76 -91c-6 -6 -14 -10 -22 -10z" />
    <glyph glyph-name="two" unicode="2" horiz-adv-x="608" 
d="M505 0h-478c-13 0 -24 9 -28 22c-3 13 3 26 15 32c1 0 120 61 235 153c102 80 227 203 227 322v2c0 2 2 38 -17 76c-25 49 -74 81 -145 90c-16 2 -27 16 -25 32s16 27 32 25c117 -15 168 -74 191 -124c23 -48 21 -93 21 -101c0 -65 -27 -134 -80 -204
c-40 -54 -99 -109 -169 -164c-53 -43 -105 -78 -147 -104h368c15 0 28 -12 28 -28s-13 -29 -28 -29zM27 447v0c-16 1 -29 13 -28 29c0 3 0 60 26 122c35 87 99 139 188 155c16 2 30 -8 33 -24c2 -16 -8 -30 -23 -33c-68 -12 -117 -53 -145 -120c-22 -52 -22 -100 -22 -100
c-1 -16 -13 -29 -29 -29z" />
    <glyph glyph-name="three" unicode="3" horiz-adv-x="613" 
d="M310 692h-239c-16 0 -29 13 -29 29c0 15 13 28 29 28h239c15 0 28 -13 28 -28c0 -16 -13 -29 -28 -29zM267 1c-23 0 -83 3 -140 32c-58 29 -127 93 -127 229c0 16 13 28 29 28c15 0 28 -12 28 -28c0 -189 161 -204 210 -204s207 15 207 204c0 83 -35 142 -103 175
c-52 26 -106 26 -106 26c-11 0 -21 6 -26 16s-3 22 4 31l190 229c10 12 28 14 41 4c12 -11 13 -29 3 -41l-157 -188c22 -5 49 -13 76 -25c39 -20 70 -46 93 -78c28 -41 42 -91 42 -149c0 -135 -69 -199 -126 -229c-57 -29 -116 -32 -138 -32z" />
    <glyph glyph-name="four" unicode="4" horiz-adv-x="586" 
d="M376 0c-16 0 -29 13 -29 29v232c0 16 13 29 29 29h128c15 0 28 -13 28 -29s-13 -28 -28 -28h-99v-204c0 -16 -13 -29 -29 -29zM291 233h-262c-12 0 -22 6 -26 15c-5 10 -4 22 2 30l348 461c8 10 20 14 32 10c11 -4 20 -16 20 -28v-380c0 -16 -13 -29 -29 -29
s-29 13 -29 29v295l-261 -346h205c16 0 28 -13 28 -29s-12 -28 -28 -28z" />
    <glyph glyph-name="five" unicode="5" horiz-adv-x="564" 
d="M72 400c-16 0 -28 14 -28 29v292c0 15 12 28 28 28h339c16 0 29 -13 29 -28c0 -16 -13 -29 -29 -29h-309v-263c0 -15 -13 -29 -30 -29zM245 -5c-22 0 -75 3 -127 29c-54 26 -118 82 -118 204c0 16 13 28 28 28c16 0 29 -12 29 -28c0 -163 143 -175 188 -175
c31 0 185 9 185 175c0 70 -31 121 -91 150c-47 22 -96 22 -97 22v0h-75c-16 0 -28 14 -28 29c0 16 12 29 28 29h75v0h1v0v0c10 0 114 -3 184 -72c40 -39 60 -93 60 -158c0 -121 -63 -177 -116 -204c-55 -27 -110 -29 -126 -29z" />
    <glyph glyph-name="six" unicode="6" horiz-adv-x="518" 
d="M345 433c48 -27 106 -84 106 -204c0 -52 -11 -96 -31 -132c-17 -30 -41 -55 -73 -71c-35 -20 -76 -29 -121 -29c-46 0 -88 10 -123 30c-31 17 -56 41 -73 71c-20 35 -30 79 -30 131c0 4 0 7 1 10c0 2 -1 4 -1 7v72v135v67c0 23 0 80 26 132c16 29 39 53 67 70
c34 19 75 28 124 28c75 0 135 -20 175 -59c18 -19 33 -42 42 -69c8 -25 12 -52 12 -81c0 -16 -12 -29 -28 -29s-29 13 -29 29c0 46 -13 83 -38 109c-29 29 -74 43 -134 43c-70 0 -116 -22 -141 -69c-19 -39 -19 -83 -19 -104v-67v-207v0c0 -3 -1 -6 -2 -9c1 -2 2 -5 2 -8
c0 -152 106 -175 169 -175c62 0 168 23 168 175c0 74 -26 124 -77 152c-26 15 -58 22 -91 22v0v0c-16 0 -48 0 -93 -26c-14 -8 -32 -3 -40 11s-3 32 11 40c59 34 103 34 122 34v0v0c42 0 84 -10 119 -29z" />
    <glyph glyph-name="seven" unicode="7" horiz-adv-x="521" 
d="M28 0c-5 0 -10 1 -14 4c-14 9 -18 26 -10 40l403 650h-379c-15 0 -28 12 -28 28c0 15 13 28 28 28h430c10 0 20 -5 25 -15c6 -8 5 -19 0 -29l-431 -692c-5 -10 -14 -14 -24 -14z" />
    <glyph glyph-name="eight" unicode="8" horiz-adv-x="590" 
d="M488 367c29 -38 44 -84 44 -138c0 -53 -13 -99 -40 -136c-21 -30 -51 -54 -88 -72c-56 -25 -117 -28 -139 -28c-28 0 -85 3 -140 28c-37 17 -68 41 -89 71c-28 37 -41 83 -41 137c0 53 14 99 43 136c21 29 53 53 92 69c1 1 2 1 3 2c-21 11 -38 25 -52 41
c-26 28 -38 64 -38 105c0 40 11 74 35 102c17 22 41 39 73 52c46 19 93 21 111 21h1c14 0 63 -2 112 -20c31 -13 55 -30 74 -52c23 -29 35 -62 35 -103s-12 -77 -37 -105c-14 -15 -32 -30 -55 -42h2c40 -17 72 -41 94 -68zM265 51c50 0 209 13 209 178
c0 73 -35 125 -102 152c-21 9 -46 15 -64 18v0c-17 2 -32 17 -32 35s13 34 32 35v0c12 2 29 6 44 12c50 20 74 53 74 101s-24 80 -72 100c-39 16 -80 16 -91 16h-1c-11 0 -52 0 -90 -16c-48 -20 -71 -52 -71 -100c0 -49 25 -83 77 -102c14 -5 27 -9 38 -10v0
c18 -2 32 -17 32 -36c0 -17 -14 -31 -30 -34v0c-19 -3 -44 -10 -65 -19c-66 -27 -100 -79 -100 -152c0 -75 32 -126 96 -155c47 -21 97 -23 116 -23z" />
    <glyph glyph-name="nine" unicode="9" horiz-adv-x="531" 
d="M106 318c-49 26 -106 84 -106 203c0 54 10 98 30 133c17 31 41 55 73 72c34 19 75 29 121 29s88 -10 123 -30c32 -17 56 -41 74 -71c20 -36 30 -79 30 -133c0 -3 0 -6 -1 -9c1 -3 1 -5 1 -7v-72v-135v-67c0 -23 0 -81 -26 -132c-16 -30 -38 -54 -68 -71
c-33 -19 -75 -28 -123 -28c-77 0 -135 20 -176 60c-18 19 -32 42 -42 68c-7 25 -12 52 -12 82c0 14 13 29 28 29c16 0 29 -15 29 -29c0 -48 13 -84 38 -109c29 -29 73 -44 135 -44c69 0 115 23 139 69c22 38 22 84 22 105v67c0 84 -1 204 -1 207v0c0 3 1 6 2 9
c-1 2 -1 5 -1 7c0 154 -108 177 -171 177c-62 0 -167 -23 -167 -177c0 -73 26 -124 75 -153c26 -14 59 -21 92 -21v0v0c16 0 48 0 94 25c13 10 31 5 38 -10c8 -14 3 -31 -11 -39c-58 -34 -102 -34 -121 -34v0v0c-43 0 -85 10 -118 29z" />
    <glyph glyph-name="colon" unicode=":" horiz-adv-x="144" 
d="M113 111c0 -24 -20 -43 -43 -43c-24 0 -43 19 -43 43c0 23 19 43 43 43c23 0 43 -20 43 -43zM113 458c0 -24 -20 -43 -43 -43c-24 0 -43 19 -43 43c0 23 19 43 43 43c23 0 43 -20 43 -43z" />
    <glyph glyph-name="semicolon" unicode=";" horiz-adv-x="154" 
d="M110 457c0 -24 -19 -43 -43 -43s-43 19 -43 43c0 23 19 43 43 43s43 -20 43 -43zM67 36c-22 0 -40 18 -40 40v68c0 22 18 40 40 40s40 -18 40 -40v-68c0 -22 -18 -40 -40 -40z" />
    <glyph glyph-name="less" unicode="&#x3c;" horiz-adv-x="299" 
d="M217 100c-7 0 -14 3 -19 7l-190 172c-6 6 -8 14 -8 21c0 9 2 16 8 22l190 170c12 11 30 11 39 -1c12 -12 11 -29 -1 -39l-165 -152l165 -150c12 -12 12 -30 1 -41c-6 -6 -13 -9 -20 -9z" />
    <glyph glyph-name="equal" unicode="=" horiz-adv-x="351" 
d="M274 325h-249c-14 0 -25 11 -25 25s11 25 25 25h249c14 0 25 -11 25 -25s-11 -25 -25 -25zM274 223h-249c-14 0 -25 12 -25 26s11 25 25 25h249c14 0 25 -11 25 -25s-11 -26 -25 -26z" />
    <glyph glyph-name="greater" unicode="&#x3e;" horiz-adv-x="299" 
d="M29 502c7 0 14 -3 19 -7l190 -172c6 -6 8 -14 8 -21c0 -9 -2 -16 -8 -22l-190 -170c-12 -11 -30 -11 -39 1c-12 12 -11 29 1 39l165 152l-165 150c-12 12 -12 30 -1 41c6 6 13 9 20 9z" />
    <glyph glyph-name="question" unicode="?" horiz-adv-x="462" 
d="M179 105c-17 0 -30 14 -30 30v201c0 17 13 31 30 31c138 0 167 89 167 165c0 14 0 56 -19 94c-23 45 -66 68 -130 68c-59 0 -98 -21 -118 -64c-19 -38 -19 -82 -19 -98c0 -18 -13 -31 -29 -31c-17 0 -31 13 -31 31c0 19 0 74 25 124c21 42 69 96 172 96
c110 0 159 -56 183 -99c27 -51 27 -104 27 -121c0 -20 0 -71 -30 -122c-16 -30 -40 -54 -69 -72c-29 -17 -61 -24 -101 -28v-175c0 -16 -11 -30 -28 -30zM207 29c0 -16 -11 -29 -28 -29s-30 13 -30 29s13 28 30 28s28 -12 28 -28z" />
    <glyph glyph-name="at" unicode="@" horiz-adv-x="583" 
d="M111 345c0 39 11 67 20 84c17 33 55 72 136 72c111 0 154 -73 157 -146v-4v-141v0h1l3 3c22 20 32 56 36 82c5 30 4 55 4 55v1c0 83 -27 139 -82 169c-30 17 -66 24 -109 24c-44 0 -83 -7 -115 -24c-59 -30 -89 -86 -89 -169c0 -88 20 -144 63 -173
c37 -26 93 -29 141 -29c28 0 47 8 47 8c13 6 28 1 34 -12c7 -13 0 -29 -13 -35c-2 -1 -28 -13 -68 -13c-56 0 -121 3 -171 39c-57 39 -85 109 -85 215c0 56 12 103 35 141c20 32 48 57 83 75c39 20 85 30 138 30c9 0 28 0 52 -4c30 -5 58 -14 81 -27c33 -18 59 -43 78 -76
c21 -36 33 -83 33 -139c0 -4 1 -31 -6 -64c-7 -48 -24 -85 -50 -111c-2 -3 -7 -9 -14 -15c-6 -5 -12 -9 -17 -12c-14 -7 -25 -5 -32 -3c-7 3 -17 10 -24 27c-3 9 -5 21 -5 37v12c-25 -21 -59 -33 -106 -33c-81 0 -119 38 -136 72c-9 16 -20 45 -20 84zM267 239
c92 0 106 67 106 106s-14 105 -106 105c-45 0 -75 -15 -91 -46c-6 -11 -13 -31 -13 -59v0c0 -29 7 -49 13 -60c16 -30 46 -46 91 -46z" />
    <glyph glyph-name="A" unicode="A" horiz-adv-x="656" 
d="M625 40c6 -15 -1 -32 -16 -38c-14 -6 -31 1 -37 15l-257 629l-259 -629c-6 -10 -16 -17 -27 -17c-4 0 -7 0 -11 2c-15 6 -22 23 -16 38l287 693v0v0c4 10 15 17 26 17c12 0 22 -7 26 -17zM416 202c16 0 29 13 29 29s-13 29 -29 29h-204c-16 0 -29 -13 -29 -29
s13 -29 29 -29h204z" />
    <glyph glyph-name="B" unicode="B" horiz-adv-x="607" 
d="M458 394c46 -27 101 -84 101 -199c0 -44 -11 -81 -34 -111c-19 -26 -44 -46 -76 -60c-52 -23 -105 -24 -114 -24h-2h-277c-15 0 -28 13 -28 29v692c0 16 13 29 28 29h280c2 0 50 -1 97 -23c30 -14 54 -34 71 -58c21 -30 31 -69 31 -112c0 -89 -45 -136 -84 -160
c2 -1 4 -2 7 -3zM426 77c51 23 76 61 76 118c0 71 -25 121 -73 149c-39 22 -81 23 -89 23h-2c-16 1 -28 13 -28 29c-1 15 12 28 27 29h3c7 0 44 1 77 20c42 22 61 59 61 112c0 56 -22 94 -68 118c-36 17 -73 17 -74 17h-251v-267h136c16 0 29 -13 29 -29
c0 -15 -13 -29 -29 -29h-136v-309h248v0v0h2c4 0 48 0 91 19z" />
    <glyph glyph-name="C" unicode="C" horiz-adv-x="654" 
d="M539 465c-16 0 -30 12 -30 29v0v0v0s0 21 -7 50c-9 38 -27 70 -51 93c-39 40 -95 59 -168 59c-211 0 -228 -165 -228 -321c0 -53 0 -138 30 -207c34 -77 99 -114 198 -114c95 0 162 34 198 102c28 52 28 103 28 104c0 16 14 28 30 28s28 -12 28 -28c0 -3 0 -67 -35 -132
c-33 -60 -102 -132 -249 -132c-65 0 -120 14 -163 42c-37 26 -66 61 -88 107c-35 79 -35 173 -35 230c0 61 0 152 34 230c21 46 51 81 88 107c43 28 98 42 164 42c89 0 160 -26 210 -76c73 -75 74 -176 74 -184v0v0v-1v0c0 -16 -12 -28 -28 -28z" />
    <glyph glyph-name="D" unicode="D" horiz-adv-x="621" 
d="M271 0h-218c-16 0 -28 13 -28 29v692c0 16 12 29 28 29h197c3 0 79 -1 154 -47c44 -28 80 -67 106 -115c30 -58 46 -129 46 -213c0 -83 -14 -155 -43 -213c-24 -48 -56 -85 -98 -114c-71 -47 -141 -48 -144 -48zM82 57h189c1 0 59 1 114 40c75 53 114 145 114 278
c0 131 -42 225 -124 277c-61 40 -124 41 -125 41h-168v-636z" />
    <glyph glyph-name="E" unicode="E" horiz-adv-x="545" 
d="M53 516c-16 0 -28 13 -28 29v177c0 16 12 28 28 28h418c16 0 28 -12 28 -28s-12 -29 -28 -29h-389v-148c0 -16 -13 -29 -29 -29zM471 1h-418c-16 0 -28 12 -28 28v396c0 16 12 29 28 29h317c16 0 29 -13 29 -29c0 -15 -13 -28 -29 -28h-288v-339h389c16 0 28 -13 28 -29
s-12 -28 -28 -28z" />
    <glyph glyph-name="F" unicode="F" horiz-adv-x="486" 
d="M312 406h-283c-15 0 -29 12 -29 28v288c0 16 14 28 29 28h418c15 0 29 -12 29 -28s-14 -28 -29 -28h-389v-230h254c16 0 30 -14 30 -30s-14 -28 -30 -28zM29 0c-15 0 -29 14 -29 29v294c0 15 14 28 29 28c16 0 29 -13 29 -28v-294c0 -15 -13 -29 -29 -29z" />
    <glyph glyph-name="G" unicode="G" horiz-adv-x="672" 
d="M568 0c15 0 28 13 28 28v232c0 16 -13 28 -28 28h-189c-16 0 -30 -12 -30 -28s14 -28 30 -28h160v-204c0 -15 13 -28 29 -28zM492 677c72 -74 74 -174 74 -184v0v0v-1v0c0 -14 -13 -27 -29 -27c-15 0 -28 13 -28 28v0v0v0s0 22 -7 51c-10 37 -29 69 -52 93
c-38 39 -95 59 -167 59c-211 0 -228 -166 -228 -321c0 -51 0 -138 30 -207c34 -76 98 -114 198 -114c70 0 125 19 163 57v0c5 5 13 9 20 9c16 0 29 -13 29 -29c0 -8 -3 -15 -8 -21v0c-42 -41 -105 -73 -204 -73c-65 0 -120 14 -162 42c-39 26 -69 61 -88 106
c-35 80 -35 174 -35 230c0 60 0 151 34 230c19 45 49 80 87 105c43 28 98 43 164 43c89 0 158 -25 209 -76z" />
    <glyph glyph-name="H" unicode="H" horiz-adv-x="605" 
d="M500 0c-16 0 -29 13 -29 29v316h-418c-15 0 -28 13 -28 29v347c0 16 13 29 28 29c16 0 29 -13 29 -29v-318h418c15 0 28 -13 28 -29v-345c0 -16 -13 -29 -28 -29zM500 463c-16 0 -29 13 -29 28v230c0 16 13 29 29 29c15 0 28 -13 28 -29v-230c0 -15 -13 -28 -28 -28z
M53 0c-15 0 -28 13 -28 29v230c0 15 13 28 28 28c16 0 29 -13 29 -28v-230c0 -16 -13 -29 -29 -29z" />
    <glyph glyph-name="I" unicode="I" horiz-adv-x="156" 
d="M29 0c-16 0 -29 12 -29 29v692c0 17 13 29 29 29c15 0 28 -12 28 -29v-692c0 -17 -13 -29 -28 -29z" />
    <glyph glyph-name="J" unicode="J" horiz-adv-x="526" 
d="M217 0c-49 0 -92 14 -127 42c-27 23 -49 53 -64 91c-25 63 -26 125 -26 127c0 16 13 29 29 29c15 0 28 -13 28 -29c0 0 1 -54 23 -106c27 -65 71 -97 137 -97c46 0 81 13 108 41c29 30 42 72 47 102c8 32 7 58 7 58v1v463c0 16 12 28 29 28c15 0 28 -12 28 -28v-463
c0 -10 1 -127 -71 -200c-37 -39 -87 -59 -148 -59z" />
    <glyph glyph-name="K" unicode="K" horiz-adv-x="569" 
d="M509 46c9 -13 7 -31 -6 -41c-5 -4 -11 -5 -17 -5c-9 0 -17 3 -22 10l-287 372l-98 -112v-242c0 -15 -12 -28 -28 -28s-29 13 -29 28v253c0 6 3 13 7 18l380 440c11 13 29 15 41 4s14 -29 3 -41l-239 -276zM51 414c-16 0 -29 12 -29 28v279c0 15 13 29 29 29
s28 -14 28 -29v-279c0 -16 -12 -28 -28 -28z" />
    <glyph glyph-name="L" unicode="L" horiz-adv-x="505" 
d="M409 0h-380c-16 0 -29 13 -29 29s13 28 29 28h380c15 0 29 -12 29 -28s-14 -29 -29 -29zM29 87c-16 0 -29 12 -29 28v606c0 16 13 29 29 29s28 -13 28 -29v-606c0 -16 -12 -28 -28 -28z" />
    <glyph glyph-name="M" unicode="M" horiz-adv-x="739" 
d="M626 0c-16 0 -28 12 -28 28v593l-233 -377c-6 -8 -15 -13 -25 -13v0c-10 0 -19 5 -24 13l-231 377v-593c0 -16 -12 -28 -28 -28s-29 12 -29 28v694c0 12 8 24 21 27c12 4 25 -1 32 -12l259 -423l262 423c7 11 20 16 32 12c13 -3 21 -15 21 -27v-694
c0 -16 -13 -28 -29 -28z" />
    <glyph glyph-name="N" unicode="N" horiz-adv-x="627" 
d="M528 0c-9 0 -18 4 -23 13l-202 294c-8 13 -5 31 8 39c12 10 31 7 39 -7l150 -218v600c0 16 13 29 28 29c16 0 29 -13 29 -29v-692c0 -13 -8 -24 -20 -28c-3 0 -6 -1 -9 -1zM54 0c-16 0 -29 13 -29 29v692c0 13 8 24 20 28c12 3 26 -1 32 -12l204 -296c8 -13 5 -31 -7 -40
c-13 -9 -31 -6 -40 8l-152 220v-600c0 -16 -12 -29 -28 -29z" />
    <glyph glyph-name="O" unicode="O" horiz-adv-x="634" 
d="M288 -3c-97 0 -167 29 -214 88c-51 61 -76 156 -76 290c0 68 6 123 17 171c11 49 28 89 53 119c25 31 56 53 94 68c35 14 77 20 126 20s92 -7 127 -24c38 -15 69 -40 94 -72c45 -62 67 -154 67 -282c0 -62 -6 -117 -17 -164c-12 -46 -31 -87 -57 -119
c-48 -63 -120 -95 -214 -95zM288 695c-85 0 -141 -21 -176 -66c-38 -50 -57 -133 -57 -254c0 -120 21 -202 61 -254c36 -45 93 -66 172 -66c77 0 133 24 171 74c39 53 60 136 60 246c0 114 -18 194 -55 246c-37 50 -94 74 -176 74z" />
    <glyph glyph-name="P" unicode="P" horiz-adv-x="608" 
d="M491 678c46 -45 69 -108 69 -186c0 -134 -68 -199 -124 -228c-61 -33 -120 -33 -123 -33h-30c-15 0 -28 13 -28 28c0 17 13 30 28 30h30c1 0 50 0 98 26c61 33 91 93 91 177c0 62 -17 111 -51 146c-23 22 -52 38 -88 48c-28 6 -49 6 -50 6v0h-228v-403h98
c16 0 29 -13 29 -30c0 -15 -13 -28 -29 -28h-98v-203c0 -15 -13 -28 -29 -28s-28 13 -28 28v694c0 15 12 28 28 28h257c6 0 106 -1 178 -72z" />
    <glyph glyph-name="Q" unicode="Q" horiz-adv-x="640" 
d="M474 92c-15 0 -27 13 -27 29c0 5 1 11 4 17v0h1c40 52 59 133 59 242c0 112 -18 192 -54 242c-36 51 -93 74 -172 74c-84 0 -140 -21 -175 -67c-37 -48 -55 -130 -55 -249c0 -117 19 -198 60 -248c35 -45 91 -67 170 -67c42 0 77 7 108 23c11 5 24 4 33 -5l104 -104
c11 -11 11 -28 0 -40c-11 -11 -29 -11 -40 0l-89 90c-35 -14 -73 -22 -116 -22c-96 0 -166 30 -212 88c-50 60 -74 154 -74 285c0 67 5 121 16 168c11 49 28 87 53 118c24 30 53 53 92 67c35 12 76 19 125 19c47 0 88 -7 124 -23c38 -14 67 -39 91 -71
c45 -61 67 -152 67 -278c0 -60 -6 -114 -17 -161c-13 -45 -30 -85 -53 -115v0v0v0c-6 -7 -14 -12 -23 -12z" />
    <glyph glyph-name="R" unicode="R" horiz-adv-x="636" 
d="M582 48c10 -11 10 -30 -2 -40c-6 -6 -12 -8 -20 -8c-7 0 -15 3 -20 10l-206 221h-241v-203c0 -15 -14 -28 -29 -28c-16 0 -29 13 -29 28v693c0 16 13 29 29 29h244c7 0 114 -1 190 -76c46 -45 69 -106 69 -183c0 -49 -8 -93 -24 -129c-14 -31 -34 -57 -59 -79
c-13 -10 -30 -8 -41 3c-10 12 -7 31 4 41c42 35 62 90 62 164c0 60 -17 109 -51 143c-31 30 -69 44 -96 51c-31 7 -54 7 -54 7v0h-215v-403h255c7 0 15 -4 20 -9z" />
    <glyph glyph-name="S" unicode="S" horiz-adv-x="496" 
d="M435 551v0v0c0 -16 -13 -29 -28 -29c-16 0 -29 12 -29 28h-1h1c-1 1 -1 39 -22 75c-26 46 -74 71 -140 71c-132 0 -160 -80 -160 -145c0 -59 21 -132 124 -145c15 -2 26 -17 24 -32c-2 -14 -14 -25 -28 -25c-1 0 -3 0 -4 1c-40 4 -73 16 -99 36c-23 17 -41 38 -53 64
c-22 43 -22 86 -22 101c0 7 0 23 3 43c5 25 12 48 25 69c16 27 39 48 68 64c32 16 74 26 122 26c111 0 165 -55 191 -101c25 -46 28 -91 28 -100v0v-1zM416 293c19 -43 19 -85 19 -101c0 -18 0 -65 -27 -110c-17 -27 -41 -46 -70 -61c-31 -15 -73 -24 -121 -24
c-112 0 -166 53 -191 97c-27 48 -28 96 -28 98v0v0v0v0c0 16 13 30 29 30c15 0 29 -14 29 -30v0v0c0 -1 0 -36 20 -70c27 -46 73 -68 141 -68c108 0 160 46 160 138c0 85 -37 136 -112 150c-16 3 -26 18 -22 34c3 16 17 25 34 22c35 -6 66 -20 90 -41c21 -16 38 -38 49 -64z
" />
    <glyph glyph-name="T" unicode="T" horiz-adv-x="599" 
d="M503 693h-474c-16 0 -29 13 -29 28c0 16 13 29 29 29h474c16 0 29 -13 29 -29c0 -15 -13 -28 -29 -28zM265 0c-17 0 -29 13 -29 29v593c0 15 12 28 29 28c16 0 29 -13 29 -28v-593c0 -16 -13 -29 -29 -29z" />
    <glyph glyph-name="U" unicode="U" horiz-adv-x="580" 
d="M271 -3c-70 0 -129 22 -171 64c-74 77 -75 191 -75 196v464c0 17 12 29 29 29c15 0 27 -12 27 -29v-464v0c0 -2 2 -54 26 -105c30 -65 86 -97 164 -97c77 0 134 33 165 99c23 52 24 103 24 104v463c0 17 12 29 28 29s29 -12 29 -29v-463c0 -3 0 -65 -30 -129
c-18 -38 -42 -69 -73 -90c-40 -28 -88 -42 -143 -42z" />
    <glyph glyph-name="V" unicode="V" horiz-adv-x="675" 
d="M6 710c-6 15 1 32 16 38c14 5 31 -1 37 -17l256 -627l260 628c5 11 15 18 27 18c3 0 7 -1 10 -2c15 -6 22 -23 15 -38l-285 -692v0v0c-4 -11 -14 -18 -27 -18c-11 0 -21 7 -26 18z" />
    <glyph glyph-name="W" unicode="W" horiz-adv-x="839" 
d="M585 0c-12 0 -23 6 -27 17l-188 463c-6 15 1 32 16 37c15 7 31 -1 37 -15l154 -381l151 606c5 16 20 25 36 22c15 -4 24 -19 20 -36l-171 -692c-3 -11 -14 -20 -27 -21h-1zM205 0h-3c-12 1 -22 10 -25 21l-173 692c-4 17 6 32 22 36c15 3 30 -6 34 -22l151 -607l107 258
c7 14 23 22 38 15c15 -5 21 -22 16 -37l-142 -339c-4 -11 -15 -17 -25 -17z" />
    <glyph glyph-name="X" unicode="X" horiz-adv-x="621" 
d="M29 0c-6 0 -12 2 -18 5c-12 10 -15 28 -5 41l245 329l-245 329c-10 13 -7 32 5 41c13 9 31 7 40 -6l258 -347c8 -11 8 -24 0 -35l-258 -345c-5 -8 -14 -12 -22 -12zM336 412c-6 0 -12 2 -17 5c-13 10 -16 30 -6 41l211 281c10 13 27 15 40 6c12 -9 15 -29 6 -41
l-211 -280c-6 -8 -14 -12 -23 -12zM547 0c-9 0 -18 4 -23 12l-211 280c-10 12 -7 31 6 40s30 7 40 -6l211 -280c9 -12 6 -31 -6 -41c-5 -3 -11 -5 -17 -5z" />
    <glyph glyph-name="Y" unicode="Y" horiz-adv-x="584" 
d="M270 0c-16 0 -28 14 -28 28v339l-57 83c-9 13 -5 30 7 39c14 10 31 6 40 -7l38 -56l214 312c9 12 27 16 40 7s17 -27 8 -40l-233 -338v-339c0 -14 -12 -28 -29 -28zM142 535c-9 0 -19 5 -24 12l-108 158c-10 13 -6 31 6 40c14 9 31 5 41 -7l108 -158c9 -13 6 -31 -7 -40
c-5 -3 -11 -5 -16 -5z" />
    <glyph glyph-name="Z" unicode="Z" horiz-adv-x="617" 
d="M506 0h-475c-12 0 -21 6 -26 15s-5 21 2 29l475 694c9 14 27 17 39 8c14 -9 17 -27 8 -40l-444 -649h421c15 0 28 -13 28 -29s-13 -28 -28 -28zM350 694h-319c-16 0 -30 12 -30 28s14 28 30 28h319c16 0 29 -12 29 -28s-13 -28 -29 -28z" />
    <glyph glyph-name="bracketleft" unicode="[" horiz-adv-x="204" 
d="M123 0h-93c-17 0 -30 12 -30 28v692c0 16 13 30 30 30h93c17 0 30 -14 30 -30c0 -15 -13 -28 -30 -28h-65v-634h65c17 0 30 -14 30 -30s-13 -28 -30 -28z" />
    <glyph glyph-name="backslash" unicode="\" horiz-adv-x="318" 
d="M221 0c-12 0 -24 8 -27 20l-192 694c-4 15 4 31 20 35c15 4 31 -4 35 -20l192 -693c4 -16 -5 -31 -21 -35c-2 -1 -4 -1 -7 -1z" />
    <glyph glyph-name="bracketright" unicode="]" horiz-adv-x="211" 
d="M29 750h93c17 0 30 -12 30 -28v-692c0 -16 -13 -30 -30 -30h-93c-17 0 -30 14 -30 30c0 15 13 28 30 28h65v634h-65c-17 0 -30 14 -30 30s13 28 30 28z" />
    <glyph glyph-name="asciicircum" unicode="^" horiz-adv-x="326" 
d="M221 580c-8 0 -17 3 -23 11l-71 87l-72 -87c-10 -13 -29 -15 -41 -5c-12 11 -14 28 -4 40l95 114c6 7 13 11 22 11c8 0 16 -4 22 -11l94 -114c10 -12 8 -29 -4 -40c-5 -5 -12 -6 -18 -6z" />
    <glyph glyph-name="underscore" unicode="_" horiz-adv-x="382" 
d="M274 -50h-248c-15 0 -26 11 -26 25s11 25 26 25h248c14 0 25 -11 25 -25s-11 -25 -25 -25z" />
    <glyph glyph-name="grave" unicode="`" horiz-adv-x="83" 
d="M28 579h-6c-12 3 -22 16 -19 27l21 122c1 14 12 22 27 19c13 0 23 -14 20 -28l-21 -120c-1 -11 -14 -20 -22 -20z" />
    <glyph glyph-name="a" unicode="a" horiz-adv-x="656" 
d="M625 40c6 -15 -1 -32 -16 -38c-14 -6 -31 1 -37 15l-257 629l-259 -629c-6 -10 -16 -17 -27 -17c-4 0 -7 0 -11 2c-15 6 -22 23 -16 38l287 693v0v0c4 10 15 17 26 17c12 0 22 -7 26 -17zM416 202c16 0 29 13 29 29s-13 29 -29 29h-204c-16 0 -29 -13 -29 -29
s13 -29 29 -29h204z" />
    <glyph glyph-name="b" unicode="b" horiz-adv-x="607" 
d="M458 394c46 -27 101 -84 101 -199c0 -44 -11 -81 -34 -111c-19 -26 -44 -46 -76 -60c-52 -23 -105 -24 -114 -24h-2h-277c-15 0 -28 13 -28 29v692c0 16 13 29 28 29h280c2 0 50 -1 97 -23c30 -14 54 -34 71 -58c21 -30 31 -69 31 -112c0 -89 -45 -136 -84 -160
c2 -1 4 -2 7 -3zM426 77c51 23 76 61 76 118c0 71 -25 121 -73 149c-39 22 -81 23 -89 23h-2c-16 1 -28 13 -28 29c-1 15 12 28 27 29h3c7 0 44 1 77 20c42 22 61 59 61 112c0 56 -22 94 -68 118c-36 17 -73 17 -74 17h-251v-267h136c16 0 29 -13 29 -29
c0 -15 -13 -29 -29 -29h-136v-309h248v0v0h2c4 0 48 0 91 19z" />
    <glyph glyph-name="c" unicode="c" horiz-adv-x="654" 
d="M539 465c-16 0 -30 12 -30 29v0v0v0s0 21 -7 50c-9 38 -27 70 -51 93c-39 40 -95 59 -168 59c-211 0 -228 -165 -228 -321c0 -53 0 -138 30 -207c34 -77 99 -114 198 -114c95 0 162 34 198 102c28 52 28 103 28 104c0 16 14 28 30 28s28 -12 28 -28c0 -3 0 -67 -35 -132
c-33 -60 -102 -132 -249 -132c-65 0 -120 14 -163 42c-37 26 -66 61 -88 107c-35 79 -35 173 -35 230c0 61 0 152 34 230c21 46 51 81 88 107c43 28 98 42 164 42c89 0 160 -26 210 -76c73 -75 74 -176 74 -184v0v0v-1v0c0 -16 -12 -28 -28 -28z" />
    <glyph glyph-name="d" unicode="d" horiz-adv-x="621" 
d="M271 0h-218c-16 0 -28 13 -28 29v692c0 16 12 29 28 29h197c3 0 79 -1 154 -47c44 -28 80 -67 106 -115c30 -58 46 -129 46 -213c0 -83 -14 -155 -43 -213c-24 -48 -56 -85 -98 -114c-71 -47 -141 -48 -144 -48zM82 57h189c1 0 59 1 114 40c75 53 114 145 114 278
c0 131 -42 225 -124 277c-61 40 -124 41 -125 41h-168v-636z" />
    <glyph glyph-name="e" unicode="e" horiz-adv-x="545" 
d="M53 516c-16 0 -28 13 -28 29v177c0 16 12 28 28 28h418c16 0 28 -12 28 -28s-12 -29 -28 -29h-389v-148c0 -16 -13 -29 -29 -29zM471 1h-418c-16 0 -28 12 -28 28v396c0 16 12 29 28 29h317c16 0 29 -13 29 -29c0 -15 -13 -28 -29 -28h-288v-339h389c16 0 28 -13 28 -29
s-12 -28 -28 -28z" />
    <glyph glyph-name="f" unicode="f" horiz-adv-x="486" 
d="M312 406h-283c-15 0 -29 12 -29 28v288c0 16 14 28 29 28h418c15 0 29 -12 29 -28s-14 -28 -29 -28h-389v-230h254c16 0 30 -14 30 -30s-14 -28 -30 -28zM29 0c-15 0 -29 14 -29 29v294c0 15 14 28 29 28c16 0 29 -13 29 -28v-294c0 -15 -13 -29 -29 -29z" />
    <glyph glyph-name="g" unicode="g" horiz-adv-x="672" 
d="M568 0c15 0 28 13 28 28v232c0 16 -13 28 -28 28h-189c-16 0 -30 -12 -30 -28s14 -28 30 -28h160v-204c0 -15 13 -28 29 -28zM492 677c72 -74 74 -174 74 -184v0v0v-1v0c0 -14 -13 -27 -29 -27c-15 0 -28 13 -28 28v0v0v0s0 22 -7 51c-10 37 -29 69 -52 93
c-38 39 -95 59 -167 59c-211 0 -228 -166 -228 -321c0 -51 0 -138 30 -207c34 -76 98 -114 198 -114c70 0 125 19 163 57v0c5 5 13 9 20 9c16 0 29 -13 29 -29c0 -8 -3 -15 -8 -21v0c-42 -41 -105 -73 -204 -73c-65 0 -120 14 -162 42c-39 26 -69 61 -88 106
c-35 80 -35 174 -35 230c0 60 0 151 34 230c19 45 49 80 87 105c43 28 98 43 164 43c89 0 158 -25 209 -76z" />
    <glyph glyph-name="h" unicode="h" horiz-adv-x="605" 
d="M500 0c-16 0 -29 13 -29 29v316h-418c-15 0 -28 13 -28 29v347c0 16 13 29 28 29c16 0 29 -13 29 -29v-318h418c15 0 28 -13 28 -29v-345c0 -16 -13 -29 -28 -29zM500 463c-16 0 -29 13 -29 28v230c0 16 13 29 29 29c15 0 28 -13 28 -29v-230c0 -15 -13 -28 -28 -28z
M53 0c-15 0 -28 13 -28 29v230c0 15 13 28 28 28c16 0 29 -13 29 -28v-230c0 -16 -13 -29 -29 -29z" />
    <glyph glyph-name="i" unicode="i" horiz-adv-x="156" 
d="M29 0c-16 0 -29 12 -29 29v692c0 17 13 29 29 29c15 0 28 -12 28 -29v-692c0 -17 -13 -29 -28 -29z" />
    <glyph glyph-name="j" unicode="j" horiz-adv-x="526" 
d="M217 0c-49 0 -92 14 -127 42c-27 23 -49 53 -64 91c-25 63 -26 125 -26 127c0 16 13 29 29 29c15 0 28 -13 28 -29c0 0 1 -54 23 -106c27 -65 71 -97 137 -97c46 0 81 13 108 41c29 30 42 72 47 102c8 32 7 58 7 58v1v463c0 16 12 28 29 28c15 0 28 -12 28 -28v-463
c0 -10 1 -127 -71 -200c-37 -39 -87 -59 -148 -59z" />
    <glyph glyph-name="k" unicode="k" horiz-adv-x="569" 
d="M509 46c9 -13 7 -31 -6 -41c-5 -4 -11 -5 -17 -5c-9 0 -17 3 -22 10l-287 372l-98 -112v-242c0 -15 -12 -28 -28 -28s-29 13 -29 28v253c0 6 3 13 7 18l380 440c11 13 29 15 41 4s14 -29 3 -41l-239 -276zM51 414c-16 0 -29 12 -29 28v279c0 15 13 29 29 29
s28 -14 28 -29v-279c0 -16 -12 -28 -28 -28z" />
    <glyph glyph-name="l" unicode="l" horiz-adv-x="505" 
d="M409 0h-380c-16 0 -29 13 -29 29s13 28 29 28h380c15 0 29 -12 29 -28s-14 -29 -29 -29zM29 87c-16 0 -29 12 -29 28v606c0 16 13 29 29 29s28 -13 28 -29v-606c0 -16 -12 -28 -28 -28z" />
    <glyph glyph-name="m" unicode="m" horiz-adv-x="739" 
d="M626 0c-16 0 -28 12 -28 28v593l-233 -377c-6 -8 -15 -13 -25 -13v0c-10 0 -19 5 -24 13l-231 377v-593c0 -16 -12 -28 -28 -28s-29 12 -29 28v694c0 12 8 24 21 27c12 4 25 -1 32 -12l259 -423l262 423c7 11 20 16 32 12c13 -3 21 -15 21 -27v-694
c0 -16 -13 -28 -29 -28z" />
    <glyph glyph-name="n" unicode="n" horiz-adv-x="627" 
d="M528 0c-9 0 -18 4 -23 13l-202 294c-8 13 -5 31 8 39c12 10 31 7 39 -7l150 -218v600c0 16 13 29 28 29c16 0 29 -13 29 -29v-692c0 -13 -8 -24 -20 -28c-3 0 -6 -1 -9 -1zM54 0c-16 0 -29 13 -29 29v692c0 13 8 24 20 28c12 3 26 -1 32 -12l204 -296c8 -13 5 -31 -7 -40
c-13 -9 -31 -6 -40 8l-152 220v-600c0 -16 -12 -29 -28 -29z" />
    <glyph glyph-name="o" unicode="o" horiz-adv-x="634" 
d="M288 -3c-97 0 -167 29 -214 88c-51 61 -76 156 -76 290c0 68 6 123 17 171c11 49 28 89 53 119c25 31 56 53 94 68c35 14 77 20 126 20s92 -7 127 -24c38 -15 69 -40 94 -72c45 -62 67 -154 67 -282c0 -62 -6 -117 -17 -164c-12 -46 -31 -87 -57 -119
c-48 -63 -120 -95 -214 -95zM288 695c-85 0 -141 -21 -176 -66c-38 -50 -57 -133 -57 -254c0 -120 21 -202 61 -254c36 -45 93 -66 172 -66c77 0 133 24 171 74c39 53 60 136 60 246c0 114 -18 194 -55 246c-37 50 -94 74 -176 74z" />
    <glyph glyph-name="p" unicode="p" horiz-adv-x="608" 
d="M491 678c46 -45 69 -108 69 -186c0 -134 -68 -199 -124 -228c-61 -33 -120 -33 -123 -33h-30c-15 0 -28 13 -28 28c0 17 13 30 28 30h30c1 0 50 0 98 26c61 33 91 93 91 177c0 62 -17 111 -51 146c-23 22 -52 38 -88 48c-28 6 -49 6 -50 6v0h-228v-403h98
c16 0 29 -13 29 -30c0 -15 -13 -28 -29 -28h-98v-203c0 -15 -13 -28 -29 -28s-28 13 -28 28v694c0 15 12 28 28 28h257c6 0 106 -1 178 -72z" />
    <glyph glyph-name="q" unicode="q" horiz-adv-x="640" 
d="M474 92c-15 0 -27 13 -27 29c0 5 1 11 4 17v0h1c40 52 59 133 59 242c0 112 -18 192 -54 242c-36 51 -93 74 -172 74c-84 0 -140 -21 -175 -67c-37 -48 -55 -130 -55 -249c0 -117 19 -198 60 -248c35 -45 91 -67 170 -67c42 0 77 7 108 23c11 5 24 4 33 -5l104 -104
c11 -11 11 -28 0 -40c-11 -11 -29 -11 -40 0l-89 90c-35 -14 -73 -22 -116 -22c-96 0 -166 30 -212 88c-50 60 -74 154 -74 285c0 67 5 121 16 168c11 49 28 87 53 118c24 30 53 53 92 67c35 12 76 19 125 19c47 0 88 -7 124 -23c38 -14 67 -39 91 -71
c45 -61 67 -152 67 -278c0 -60 -6 -114 -17 -161c-13 -45 -30 -85 -53 -115v0v0v0c-6 -7 -14 -12 -23 -12z" />
    <glyph glyph-name="r" unicode="r" horiz-adv-x="636" 
d="M582 48c10 -11 10 -30 -2 -40c-6 -6 -12 -8 -20 -8c-7 0 -15 3 -20 10l-206 221h-241v-203c0 -15 -14 -28 -29 -28c-16 0 -29 13 -29 28v693c0 16 13 29 29 29h244c7 0 114 -1 190 -76c46 -45 69 -106 69 -183c0 -49 -8 -93 -24 -129c-14 -31 -34 -57 -59 -79
c-13 -10 -30 -8 -41 3c-10 12 -7 31 4 41c42 35 62 90 62 164c0 60 -17 109 -51 143c-31 30 -69 44 -96 51c-31 7 -54 7 -54 7v0h-215v-403h255c7 0 15 -4 20 -9z" />
    <glyph glyph-name="s" unicode="s" horiz-adv-x="496" 
d="M435 551v0v0c0 -16 -13 -29 -28 -29c-16 0 -29 12 -29 28h-1h1c-1 1 -1 39 -22 75c-26 46 -74 71 -140 71c-132 0 -160 -80 -160 -145c0 -59 21 -132 124 -145c15 -2 26 -17 24 -32c-2 -14 -14 -25 -28 -25c-1 0 -3 0 -4 1c-40 4 -73 16 -99 36c-23 17 -41 38 -53 64
c-22 43 -22 86 -22 101c0 7 0 23 3 43c5 25 12 48 25 69c16 27 39 48 68 64c32 16 74 26 122 26c111 0 165 -55 191 -101c25 -46 28 -91 28 -100v0v-1zM416 293c19 -43 19 -85 19 -101c0 -18 0 -65 -27 -110c-17 -27 -41 -46 -70 -61c-31 -15 -73 -24 -121 -24
c-112 0 -166 53 -191 97c-27 48 -28 96 -28 98v0v0v0v0c0 16 13 30 29 30c15 0 29 -14 29 -30v0v0c0 -1 0 -36 20 -70c27 -46 73 -68 141 -68c108 0 160 46 160 138c0 85 -37 136 -112 150c-16 3 -26 18 -22 34c3 16 17 25 34 22c35 -6 66 -20 90 -41c21 -16 38 -38 49 -64z
" />
    <glyph glyph-name="t" unicode="t" horiz-adv-x="599" 
d="M503 693h-474c-16 0 -29 13 -29 28c0 16 13 29 29 29h474c16 0 29 -13 29 -29c0 -15 -13 -28 -29 -28zM265 0c-17 0 -29 13 -29 29v593c0 15 12 28 29 28c16 0 29 -13 29 -28v-593c0 -16 -13 -29 -29 -29z" />
    <glyph glyph-name="u" unicode="u" horiz-adv-x="580" 
d="M271 -3c-70 0 -129 22 -171 64c-74 77 -75 191 -75 196v464c0 17 12 29 29 29c15 0 27 -12 27 -29v-464v0c0 -2 2 -54 26 -105c30 -65 86 -97 164 -97c77 0 134 33 165 99c23 52 24 103 24 104v463c0 17 12 29 28 29s29 -12 29 -29v-463c0 -3 0 -65 -30 -129
c-18 -38 -42 -69 -73 -90c-40 -28 -88 -42 -143 -42z" />
    <glyph glyph-name="v" unicode="v" horiz-adv-x="675" 
d="M6 710c-6 15 1 32 16 38c14 5 31 -1 37 -17l256 -627l260 628c5 11 15 18 27 18c3 0 7 -1 10 -2c15 -6 22 -23 15 -38l-285 -692v0v0c-4 -11 -14 -18 -27 -18c-11 0 -21 7 -26 18z" />
    <glyph glyph-name="w" unicode="w" horiz-adv-x="839" 
d="M585 0c-12 0 -23 6 -27 17l-188 463c-6 15 1 32 16 37c15 7 31 -1 37 -15l154 -381l151 606c5 16 20 25 36 22c15 -4 24 -19 20 -36l-171 -692c-3 -11 -14 -20 -27 -21h-1zM205 0h-3c-12 1 -22 10 -25 21l-173 692c-4 17 6 32 22 36c15 3 30 -6 34 -22l151 -607l107 258
c7 14 23 22 38 15c15 -5 21 -22 16 -37l-142 -339c-4 -11 -15 -17 -25 -17z" />
    <glyph glyph-name="x" unicode="x" horiz-adv-x="621" 
d="M29 0c-6 0 -12 2 -18 5c-12 10 -15 28 -5 41l245 329l-245 329c-10 13 -7 32 5 41c13 9 31 7 40 -6l258 -347c8 -11 8 -24 0 -35l-258 -345c-5 -8 -14 -12 -22 -12zM336 412c-6 0 -12 2 -17 5c-13 10 -16 30 -6 41l211 281c10 13 27 15 40 6c12 -9 15 -29 6 -41
l-211 -280c-6 -8 -14 -12 -23 -12zM547 0c-9 0 -18 4 -23 12l-211 280c-10 12 -7 31 6 40s30 7 40 -6l211 -280c9 -12 6 -31 -6 -41c-5 -3 -11 -5 -17 -5z" />
    <glyph glyph-name="y" unicode="y" horiz-adv-x="584" 
d="M270 0c-16 0 -28 14 -28 28v339l-57 83c-9 13 -5 30 7 39c14 10 31 6 40 -7l38 -56l214 312c9 12 27 16 40 7s17 -27 8 -40l-233 -338v-339c0 -14 -12 -28 -29 -28zM142 535c-9 0 -19 5 -24 12l-108 158c-10 13 -6 31 6 40c14 9 31 5 41 -7l108 -158c9 -13 6 -31 -7 -40
c-5 -3 -11 -5 -16 -5z" />
    <glyph glyph-name="z" unicode="z" horiz-adv-x="617" 
d="M506 0h-475c-12 0 -21 6 -26 15s-5 21 2 29l475 694c9 14 27 17 39 8c14 -9 17 -27 8 -40l-444 -649h421c15 0 28 -13 28 -29s-13 -28 -28 -28zM350 694h-319c-16 0 -30 12 -30 28s14 28 30 28h319c16 0 29 -12 29 -28s-13 -28 -29 -28z" />
    <glyph glyph-name="braceleft" unicode="{" horiz-adv-x="320" 
d="M201 58c14 -3 26 -15 26 -30c0 -16 -13 -28 -28 -28c-8 0 -42 2 -73 58c-30 57 -47 154 -50 288h-47c-17 0 -29 14 -29 30c0 14 12 28 29 28h47c3 134 20 231 50 288c31 56 65 58 73 58c15 0 28 -12 28 -28c0 -15 -12 -27 -26 -30c-2 0 -17 -7 -32 -43
c-17 -39 -36 -118 -36 -273c0 -157 19 -236 36 -275c15 -36 30 -43 32 -43z" />
    <glyph glyph-name="braceright" unicode="}" horiz-adv-x="319" 
d="M25 692c-14 3 -26 15 -26 30c0 16 13 28 28 28c8 0 42 -2 73 -58c30 -57 47 -154 50 -288h47c17 0 29 -14 29 -30c0 -14 -12 -28 -29 -28h-47c-3 -134 -20 -231 -50 -288c-31 -56 -65 -58 -73 -58c-15 0 -28 12 -28 28c0 15 12 27 26 30c2 0 17 7 32 43
c17 39 36 118 36 273c0 157 -19 236 -36 275c-15 36 -30 43 -32 43z" />
    <glyph glyph-name="bar" unicode="|" horiz-adv-x="157" 
d="M69 -66c-17 0 -30 13 -30 30l-1 814c0 16 13 29 29 29h1c16 0 30 -13 30 -29v-814c0 -17 -13 -30 -29 -30v0z" />
    <glyph glyph-name="Euro" unicode="&#x20ac;" horiz-adv-x="695" 
d="M571 680c74 -76 75 -177 75 -186v0v0v-1v0c0 -16 -13 -28 -29 -28s-28 12 -28 29v0v0v0s0 22 -9 51c-9 38 -27 69 -51 95c-39 39 -97 58 -170 58c-174 0 -218 -110 -229 -236h200c16 0 29 -12 29 -29c0 -15 -13 -28 -29 -28h-202v-32v-31h202c16 0 29 -13 29 -30
c0 -15 -13 -28 -29 -28h-200c4 -39 11 -82 28 -120c35 -78 101 -116 201 -116c97 0 163 35 201 104c28 52 29 104 29 105c0 16 12 29 28 29c17 0 29 -13 29 -29c0 -3 0 -69 -36 -133c-33 -63 -103 -135 -251 -135c-66 0 -122 15 -166 44c-38 25 -68 60 -88 107
c-20 46 -29 98 -32 144h-80c-17 0 -29 13 -29 28c0 17 12 30 29 30h76v31v32h-76c-17 0 -29 13 -29 28c0 17 12 29 29 29h80c2 47 11 98 30 145c21 45 51 82 89 107c44 28 101 43 167 43c89 0 161 -26 212 -77z" />
    <glyph glyph-name="asciitilde" unicode="~" 
 />
    <glyph glyph-name="_0127" horiz-adv-x="0" 
 />
    <glyph glyph-name="_0129" horiz-adv-x="0" 
 />
    <glyph glyph-name="quotesinglbase" unicode="&#x201a;" 
 />
    <glyph glyph-name="florin" unicode="&#x192;" horiz-adv-x="486" 
 />
    <glyph glyph-name="quotedblbase" unicode="&#x201e;" 
 />
    <glyph glyph-name="ellipsis" unicode="&#x2026;" horiz-adv-x="378" 
d="M89 30c0 -17 -14 -30 -30 -30c-17 0 -30 13 -30 30s13 30 30 30c16 0 30 -13 30 -30zM215 30c0 -17 -14 -30 -30 -30c-17 0 -30 13 -30 30s13 30 30 30c16 0 30 -13 30 -30zM341 30c0 -17 -14 -30 -30 -30c-17 0 -30 13 -30 30s13 30 30 30c16 0 30 -13 30 -30z" />
    <glyph glyph-name="dagger" unicode="&#x2020;" horiz-adv-x="344" 
 />
    <glyph glyph-name="daggerdbl" unicode="&#x2021;" horiz-adv-x="344" 
 />
    <glyph glyph-name="circumflex" unicode="&#x2c6;" horiz-adv-x="280" 
d="M221 580c-8 0 -17 3 -23 11l-71 87l-72 -87c-10 -13 -29 -15 -41 -5c-12 11 -14 28 -4 40l95 114c6 7 13 11 22 11c8 0 16 -4 22 -11l94 -114c10 -12 8 -29 -4 -40c-5 -5 -12 -6 -18 -6z" />
    <glyph glyph-name="perthousand" unicode="&#x2030;" 
 />
    <glyph glyph-name="Scaron" unicode="&#x160;" horiz-adv-x="496" 
 />
    <glyph glyph-name="guilsinglleft" unicode="&#x2039;" 
 />
    <glyph glyph-name="OE" unicode="&#x152;" horiz-adv-x="1179" 
 />
    <glyph glyph-name="quoteleft" unicode="&#x2018;" 
 />
    <glyph glyph-name="quoteright" unicode="&#x2019;" 
 />
    <glyph glyph-name="quotedblleft" unicode="&#x201c;" 
 />
    <glyph glyph-name="quotedblright" unicode="&#x201d;" 
 />
    <glyph glyph-name="bullet" unicode="&#x2022;" 
 />
    <glyph glyph-name="endash" unicode="&#x2013;" 
 />
    <glyph glyph-name="emdash" unicode="&#x2014;" 
 />
    <glyph glyph-name="tilde" unicode="&#x2dc;" 
 />
    <glyph glyph-name="trademark" unicode="&#x2122;" horiz-adv-x="675" 
d="M279 585h-190c-7 0 -12 5 -12 11c0 7 5 12 12 12h190c7 0 12 -5 12 -12c0 -6 -5 -11 -12 -11zM183 307c-6 0 -11 5 -11 12v237c0 7 5 12 11 12c7 0 12 -5 12 -12v-237c0 -7 -5 -12 -12 -12zM568 307c-6 0 -11 4 -11 11v238l-93 -151c-2 -3 -7 -6 -11 -6v0c-3 0 -7 3 -9 6
l-93 151v-238c0 -7 -4 -11 -11 -11c-6 0 -11 4 -11 11v278c0 5 3 10 8 12c4 1 10 -1 13 -5l103 -170l106 170c3 4 8 6 12 5c6 -2 9 -7 9 -12v-278c0 -7 -5 -11 -12 -11z" />
    <glyph glyph-name="scaron" unicode="&#x161;" horiz-adv-x="496" 
 />
    <glyph glyph-name="guilsinglright" unicode="&#x203a;" 
 />
    <glyph glyph-name="oe" unicode="&#x153;" horiz-adv-x="1179" 
 />
    <glyph glyph-name="Ydieresis" unicode="&#x178;" horiz-adv-x="584" 
 />
    <glyph glyph-name="copyright" unicode="&#xa9;" horiz-adv-x="413" 
d="M164 421c-21 0 -43 4 -64 14c-20 7 -37 19 -51 35c-16 15 -28 31 -35 52c-10 19 -14 42 -14 63c0 22 4 43 14 65c7 19 19 37 35 50c14 16 31 28 51 36c21 10 43 13 64 13c22 0 44 -3 65 -13c19 -8 37 -20 50 -36c16 -13 28 -31 36 -50c10 -22 13 -43 13 -65
c0 -21 -3 -44 -13 -63c-8 -21 -20 -37 -36 -52c-13 -16 -31 -28 -50 -35c-21 -10 -43 -14 -65 -14zM164 705c-66 0 -120 -53 -120 -120c0 -66 54 -120 120 -120c67 0 120 54 120 120c0 67 -53 120 -120 120zM164 488c-54 0 -97 43 -97 97s43 97 97 97c35 0 68 -19 86 -49
c6 -12 1 -26 -10 -31c-10 -6 -24 -2 -31 8c-8 17 -26 28 -45 28c-30 0 -53 -23 -53 -53c0 -29 23 -52 53 -52c20 0 38 11 48 29c4 10 18 15 29 9c11 -5 15 -19 10 -29c-8 -16 -19 -30 -35 -38c-16 -11 -34 -16 -52 -16z" />
    <glyph glyph-name="sterling" unicode="&#xa3;" horiz-adv-x="491" 
d="M57 495v8c-1 19 -1 53 5 88c7 46 25 83 52 111c34 36 84 53 145 53c35 0 65 -5 91 -16c24 -10 45 -25 61 -44c57 -64 47 -157 47 -160v0c-1 -15 -13 -27 -28 -27c-17 0 -29 14 -29 29v4c1 7 6 73 -32 117c-24 26 -62 40 -110 40c-45 0 -81 -13 -104 -36
c-44 -46 -42 -124 -41 -156v-11v-117h231c15 0 29 -13 29 -29s-14 -29 -29 -29h-259c-17 0 -29 13 -29 29v146zM430 59c16 0 28 -14 28 -30c0 -15 -12 -29 -28 -29h-430c-17 0 -29 14 -29 29c0 16 12 28 27 30c2 0 14 2 27 25s31 74 31 178c0 16 13 28 28 28
c17 0 30 -12 30 -28c0 -91 -13 -159 -37 -203h353z" />
    <glyph glyph-name="numbersign" unicode="#" horiz-adv-x="608" 
d="M472 298c13 0 27 -15 27 -28c0 -18 -14 -28 -27 -28h-130l-22 -111c-3 -13 -15 -22 -25 -22c-3 0 -5 2 -7 2c-16 2 -24 15 -23 33l23 98h-126l-24 -111c-3 -13 -14 -22 -26 -22c-3 0 -4 2 -4 2c-18 2 -27 15 -25 33l25 98h-81c-15 0 -27 10 -27 28c0 13 12 28 27 28h89
l28 125h-117c-15 0 -27 12 -27 28c0 15 12 28 27 28h130l20 108c5 13 19 23 32 21c18 -5 26 -18 25 -34l-23 -95h124l24 108c2 13 19 23 32 21c15 -5 25 -18 22 -34l-20 -95h79c13 0 27 -13 27 -28c0 -16 -14 -28 -27 -28h-92l-25 -125h117zM175 298h123l29 125h-126z" />
    <glyph glyph-name="exclam" unicode="!" horiz-adv-x="117" 
d="M50 106c-16 0 -28 13 -28 29v586c0 17 12 29 28 29c15 0 29 -12 29 -29v-586c0 -16 -14 -29 -29 -29zM77 29c0 -17 -13 -29 -28 -29c-17 0 -29 12 -29 29c0 16 12 28 29 28c15 0 28 -12 28 -28z" />
    <glyph glyph-name="quotedbl" unicode="&#x22;" horiz-adv-x="221" 
d="M25 585c-3 0 -4 0 -6 1c-12 1 -21 14 -19 28l21 118c1 12 15 21 28 19c12 -2 21 -15 20 -28l-21 -118c-2 -11 -12 -20 -23 -20zM99 585c0 0 -3 0 -4 1c-13 1 -21 14 -19 28l19 118c4 12 16 21 28 19c14 -2 22 -15 20 -28l-20 -118c-2 -11 -12 -20 -24 -20z" />
  </font>
</defs>
</svg>
