<svg xmlns="http://www.w3.org/2000/svg" width="98" height="34" viewBox="0 0 98 34">
  <path fill="#606EC3" fill-rule="evenodd" d="M16.683 20.344c-.813 0-1.596-.195-2.205-.55L1.418 12.18C.623 11.716.166 11.002.165 10.22c0-.778.45-1.49 1.24-1.954L14.38.652C14.986.296 15.77.1 16.583.1c.814 0 1.597.196 2.205.55l13.06 7.614c.796.464 1.254 1.18 1.255 1.96 0 .78-.45 1.49-1.24 1.955L18.885 19.79c-.606.356-1.388.552-2.203.552zM2.657 10.22L15.63 17.78c.255.15.65.238 1.053.238.403 0 .794-.088 1.047-.237l12.88-7.558-12.972-7.562c-.256-.15-.65-.24-1.055-.24-.402 0-.794.09-1.047.238l-12.88 7.56zm30.465 7.464c0-.923-.395-1.675-1.064-2.064-.67-.39-1.525-.308-2.322.156l-4.56 2.702h-.002l-.272.122-7.386 4.29c-.236.086-.53.126-.833.126-.404 0-.798-.055-1.054-.205L8.14 18.48l-4.57-2.702c-.796-.464-1.65-.526-2.32-.136-.668.388-1.067 1.12-1.067 2.044v15.023h.03c.024.74.528 1.113 1.147 1.113.62 0 1.123-.374 1.148-1.113h.003L2.46 17.765l5.41 3.22v.005l6.557 3.79c.608.355 1.418.55 2.23.55.816 0 1.612-.195 2.218-.55l4.243-2.487 7.765-4.48.046 14.918v-.023h-.122c.025.74.53 1.113 1.148 1.113.62 0 1.123-.374 1.148-1.113h.022V17.684zm-30.61.126v-.01.01zm28.333-.01v.01l-.004-.006.005-.003zm23.37 8.658H52.46v-1.092c-.5.45-1.048.79-1.644 1.028-.597.237-1.21.356-1.835.356-.94 0-1.78-.153-2.526-.457-.745-.305-1.373-.73-1.886-1.276-.51-.546-.904-1.2-1.18-1.962-.274-.76-.412-1.595-.412-2.5 0-.898.138-1.73.413-2.495.276-.766.67-1.422 1.18-1.968.514-.546 1.142-.973 1.887-1.282.745-.31 1.587-.464 2.526-.464.626 0 1.238.113 1.835.337.596.224 1.144.56 1.644 1.01v-4.317H50.1V9.89h4.114v16.568zM52.46 17.38c-.5-.55-1.043-.947-1.632-1.193-.588-.245-1.212-.368-1.872-.368-.694 0-1.306.122-1.835.367-.53.246-.97.58-1.326 1.003-.356.423-.625.92-.807 1.492-.182.57-.273 1.195-.273 1.872 0 .678.09 1.302.273 1.873.182.57.45 1.07.807 1.492.355.422.797.756 1.326 1.002.53.245 1.14.368 1.835.368 1.337 0 2.505-.53 3.504-1.587V17.38zm16.96-2.754l-5.128 11.832h-2.336l-5.155-11.832h2.082l4.24 10.372 4.216-10.372h2.083zm13.8 11.832h-1.74v-8.506c0-.677-.117-1.202-.354-1.574-.237-.373-.58-.56-1.03-.56-.66 0-1.143.348-1.452 1.042-.31.694-.464 1.667-.464 2.92v6.678H76.43v-8.506c0-.677-.12-1.202-.36-1.574-.243-.373-.588-.56-1.036-.56-.415 0-.745.124-.99.37-.246.245-.438.558-.578.94-.14.38-.23.803-.273 1.268-.042.466-.063.927-.063 1.384v6.678h-1.74V14.626h1.74v1.714c.364-1.33 1.155-1.994 2.374-1.994 1.16 0 1.946.58 2.36 1.74.576-1.16 1.39-1.74 2.438-1.74 1.008 0 1.746.3 2.216.895.47.598.704 1.502.704 2.712v8.506zm14.194 2.36H85.584v-1.484h11.832v1.485z"/>
</svg>