<svg xmlns="http://www.w3.org/2000/svg" width="38" height="23" viewBox="0 0 38 23">
  <path fill="#606EC3" fill-rule="evenodd" d="M19.056 23c-.923 0-1.81-.22-2.502-.622L1.734 13.77C.828 13.247.31 12.44.308 11.557c-.002-.88.51-1.686 1.408-2.21L16.443.74c.688-.403 1.576-.625 2.5-.625.923 0 1.812.22 2.503.622l14.82 8.607c.904.525 1.423 1.332 1.425 2.215.002.88-.512 1.685-1.408 2.21l-14.725 8.606c-.688.403-1.576.624-2.5.624zM3.138 11.554l14.722 8.55c.29.168.738.27 1.196.27.458 0 .902-.1 1.19-.27l14.615-8.543-14.72-8.548c-.29-.17-.738-.27-1.197-.27-.457 0-.9.1-1.188.268L3.138 11.554z"/>
</svg>